<svg width="402" height="179" viewBox="0 0 402 179" fill="none" xmlns="http://www.w3.org/2000/svg">
<path d="M29.4195 134.353C27.0403 135.067 25.259 137.71 26.4689 140.049C26.7147 142.601 28.9013 144.131 31.4039 144.049C34.2839 143.955 36.8078 141.281 36.3933 138.346C35.9576 135.26 32.2383 133.507 29.4195 134.353ZM34.869 138.421C33.8669 138.301 32.7885 138.396 31.8208 138.412C31.8137 137.512 31.796 136.613 31.7519 135.714C33.2065 136.008 34.57 136.99 34.869 138.421ZM29.8077 135.761C30.0489 135.692 30.302 135.651 30.5606 135.633C30.5128 136.567 30.4942 137.502 30.487 138.438C29.4284 138.458 28.37 138.481 27.3115 138.505C27.6115 137.238 28.5202 136.127 29.8077 135.761ZM27.2866 139.935C27.2743 139.882 27.2524 139.838 27.2248 139.8C27.2229 139.782 27.221 139.763 27.2194 139.744C28.3039 139.768 29.3886 139.792 30.4733 139.813C30.4439 140.706 30.3415 141.728 30.4855 142.641C29.0306 142.492 27.6838 141.621 27.2866 139.935ZM31.8313 142.577C31.9597 141.689 31.8654 140.705 31.8356 139.839C32.7937 139.856 33.8529 139.948 34.842 139.834C34.5065 141.353 33.2422 142.298 31.8313 142.577Z" fill="#C7C7C7"/>
<path d="M54.909 176.725C54.8208 174.503 54.912 171.203 54.912 171.451C54.4722 171.165 55.4131 171.609 54.912 171.451C54.6022 171.353 55.087 171.4 54.912 171.203C54.7005 170.964 54.974 167.914 54.9015 167.537C54.8063 167.041 54.9687 166.982 54.9668 166.208L54.9622 165.093C54.951 161.443 54.931 156.794 54.6587 153.155C54.728 153.085 54.7841 153.005 54.823 152.918C55.6311 152.585 56.4293 152.116 57.1255 151.604C57.6588 151.564 58.1973 150.934 57.814 150.407C56.778 148.983 55.7427 147.56 54.709 146.136C55.031 141.471 54.8441 136.718 54.8452 132.047C54.8464 127.177 54.8476 122.308 54.8488 117.438C54.8488 117.061 54.5289 116.74 54.1507 116.74C52.9647 116.74 51.7793 116.745 50.5937 116.759C50.5848 114.761 50.5758 112.763 50.5669 110.765C50.5652 110.373 50.235 110.035 49.8393 110.037C47.393 110.048 44.9471 110.003 42.5007 110C42.0869 110 41.7362 110.351 41.7358 110.765C41.7338 112.76 41.7037 114.756 41.6838 116.752C39.0376 116.776 36.3914 116.8 33.7452 116.825C32.9156 115.752 32.0572 114.708 31.1481 113.726C30.7771 113.326 30.1403 113.664 30.0916 114.112C29.4392 115.017 28.8019 115.934 28.1744 116.859C26.8336 116.581 25.2657 116.778 23.9352 116.763C22.2784 116.745 20.6213 116.746 18.9642 116.741C15.6354 116.731 12.3067 116.72 8.97788 116.71C8.58339 116.709 8.25105 117.045 8.24982 117.438C8.23321 122.662 8.23842 127.886 8.23887 133.11C8.23907 135.672 8.24152 138.233 8.25292 140.795C8.26322 143.108 8.09067 145.568 8.41316 147.877C7.31296 149.626 6.21212 151.373 5.11327 153.123C4.78685 153.642 5.22308 154.132 5.69647 154.176C5.76417 154.256 5.84512 154.334 5.96086 154.417C6.27253 154.642 6.58761 154.865 6.90681 155.08C7.34864 155.376 7.88322 155.77 8.42198 155.97C8.4395 155.993 8.45857 156.014 8.47898 156.035C8.13582 157.462 8.34289 159.215 8.33381 160.623C8.32995 161.216 8.32924 161.81 8.32621 162.403C8.32621 162.403 8.32074 163.619 8.43535 163.508C8.32072 163.619 8.31287 161.949 8.32072 163.619L8.30901 177.463C8.30901 177.463 33.1094 175.074 50.5908 177.753L54.8021 178C54.8021 178 54.9556 177.899 54.909 176.725ZM54.9668 166.208C54.9628 166.846 54.3446 170.97 54.912 171.451C55.5452 171.988 54.1561 176.436 54.909 176.725C54.9558 178.021 54.8021 178 54.8021 178L54.909 176.725C55.0526 174.988 54.912 173.173 54.912 171.451C54.912 169.376 54.9819 168.283 54.9668 166.208ZM49.0672 123.433C49.0874 124.104 49.1931 124.547 49.2424 125.101C47.2374 125.096 45.2323 125.09 43.2272 125.088C43.2562 124.423 43.2784 123.758 43.2942 123.093C45.2166 123.106 47.1393 123.105 49.0618 123.107C49.0643 123.215 49.0639 123.324 49.0672 123.433ZM49.0777 118.338C49.0727 119.451 49.0499 120.568 49.0478 121.683C47.139 121.685 45.2301 121.684 43.3215 121.697C43.3639 118.308 43.2837 114.915 43.269 111.526C45.2155 111.518 47.1618 111.492 49.1082 111.493C49.0981 113.775 49.0879 116.056 49.0777 118.338ZM41.6717 118.125C41.6555 120.643 41.6707 123.16 41.7972 125.674C41.8284 126.293 42.4542 126.488 42.8608 126.26C45.1869 126.259 47.5131 126.25 49.8391 126.245C50.1475 126.244 50.411 125.984 50.4104 125.674C50.4086 124.809 50.5845 124.322 50.6112 123.433C50.6621 121.737 50.6083 120.034 50.6007 118.338C50.6004 118.265 50.6 118.191 50.5997 118.118C51.5507 118.129 52.5016 118.134 53.4526 118.135C53.4537 122.772 53.4549 127.409 53.456 132.047C53.4569 136.161 53.3124 140.338 53.4976 144.463C50.4712 140.285 47.4636 136.097 44.5135 131.858C42.3618 128.767 40.2 125.682 37.9856 122.635C36.8924 121.13 35.8089 119.578 34.6823 118.061C37.0121 118.082 39.3419 118.103 41.6717 118.125ZM9.70252 141.028C9.71418 138.389 9.71702 135.75 9.71682 133.11C9.71644 128.128 9.71959 123.146 9.70684 118.164C12.7926 118.155 15.8784 118.145 18.9641 118.136C20.6211 118.131 22.2782 118.132 23.9351 118.114C24.9883 118.102 26.195 118.222 27.3177 118.135C25.1495 121.399 23.0886 124.744 20.9815 128.037C17.4765 133.515 13.9977 139.009 10.5307 144.511C10.258 144.944 9.98598 145.377 9.71334 145.81C9.77118 144.212 9.69563 142.586 9.70252 141.028ZM6.91434 153.464C6.83892 153.419 6.76247 153.365 6.68454 153.314C13.2467 142.849 19.8201 132.39 26.4474 121.966C27.8741 119.722 29.3323 117.497 30.7029 115.219C32.7185 118.108 34.9915 120.847 37.0493 123.706C39.2483 126.761 41.3958 129.853 43.5351 132.95C47.6302 138.879 51.6033 144.951 56.025 150.647C55.4486 150.967 54.8807 151.356 54.389 151.793C50.7085 146.637 47.0282 141.5 43.4866 136.243C41.6487 133.516 39.8 130.795 37.917 128.098C36.9339 126.69 35.9413 125.289 34.9358 123.897C33.9789 122.572 33.028 121.023 31.789 119.933C31.6755 119.636 31.2872 119.44 31.045 119.747C29.1832 122.105 27.5846 124.697 25.9664 127.225C23.9594 130.361 21.9644 133.505 19.9863 136.659C16.237 142.638 12.3269 148.56 8.7551 154.648C8.44762 154.406 8.10426 154.196 7.80361 154.005C7.51043 153.819 7.21223 153.642 6.91434 153.464ZM8.29188 176.825L8.30901 177.463C8.30901 177.463 8.44617 163.884 8.43535 163.508C8.37049 161.261 8.32072 163.619 8.32072 163.619C8.31686 164.533 8.31088 165.447 8.30901 166.361C8.30496 168.314 8.3009 170.267 8.29684 172.22C8.29394 173.618 8.04423 175.358 8.29188 176.825ZM25.9862 174.814C26.0402 174.067 25.9505 173.271 25.9392 172.591C25.9252 171.746 25.9587 171.883 26.8552 171.876C27.8357 171.868 28.8163 171.861 29.7967 171.852C31.6003 171.836 33.403 171.821 35.2058 171.768C35.4502 171.76 36.262 171.631 36.4824 171.718C37.0636 171.95 36.8922 172.523 36.898 172.994C36.9051 173.573 36.91 174.15 36.9039 174.728C33.2686 174.609 29.6241 174.638 25.9862 174.814ZM31.5938 161.767C31.5892 161.409 31.5876 161.049 31.5871 160.689C32.5737 160.723 33.602 160.794 34.577 160.629C34.5848 161.052 34.5933 161.476 34.6011 161.899C34.6517 164.646 34.541 167.483 34.8152 170.231C34.5017 170.243 34.1993 170.256 33.9253 170.256C33.1806 170.256 32.4356 170.27 31.6907 170.286C31.7385 167.451 31.6301 164.6 31.5938 161.767ZM34.4331 153.045C34.4748 155.137 34.5135 157.23 34.5522 159.322C33.5855 159.162 32.568 159.232 31.5902 159.266C31.6002 157.209 31.6122 155.138 31.4508 153.104C32.445 153.087 33.4391 153.069 34.4331 153.045ZM30.4036 159.301C29.4268 159.334 28.4525 159.386 27.4772 159.451C27.4419 157.361 27.4021 155.271 27.3551 153.181C28.3762 153.157 29.3975 153.138 30.4188 153.121C30.2984 155.164 30.3528 157.24 30.4036 159.301ZM27.4949 160.505C28.4742 160.57 29.4528 160.622 30.4337 160.654C30.4406 161.026 30.4461 161.397 30.4487 161.767C30.4686 164.608 30.4165 167.469 30.5219 170.31C30.3541 170.314 30.1863 170.318 30.0185 170.32C29.2171 170.334 28.4146 170.331 27.6126 170.334C27.5863 167.058 27.5471 163.781 27.4949 160.505ZM39.163 174.82C38.8724 174.805 38.5814 174.794 38.2905 174.782C38.3235 173.889 38.3372 172.983 38.2759 172.105C38.227 171.403 37.9366 170.792 37.2741 170.493C36.8934 170.32 36.4388 170.25 35.9658 170.225C36.1614 167.406 35.9404 164.496 35.9036 161.684C35.863 158.574 35.8224 155.463 35.7762 152.352C35.7709 151.991 35.4698 151.666 35.0981 151.674C32.279 151.735 29.4589 151.735 26.6398 151.795C26.2662 151.803 25.9322 152.11 25.9391 152.496C26.0453 158.449 26.1749 164.4 26.3689 170.349C26.2981 170.351 26.2274 170.351 26.1566 170.353C25.4319 170.372 24.7466 170.495 24.4836 171.26C24.2386 171.973 24.3928 172.922 24.3951 173.667C24.3963 174.052 24.3832 174.48 24.4159 174.899C20.2429 175.149 16.0817 175.588 11.9568 176.215C11.2034 176.329 10.452 176.452 9.70143 176.579C9.88666 175.167 9.66214 173.548 9.65931 172.22C9.65602 170.69 9.6528 169.161 9.64951 167.631C13.7208 167.574 17.9985 167.729 21.9905 166.982C22.4621 166.894 22.2919 166.253 21.8857 166.208C17.8842 165.769 13.6741 166.309 9.6472 166.563C9.64707 166.496 9.64687 166.428 9.64675 166.361C9.64275 164.505 9.63444 162.649 9.62259 160.792C11.0592 160.863 12.5116 160.811 13.9469 160.81C15.383 160.81 16.9029 160.846 18.3121 160.561C18.6326 160.496 18.6327 159.978 18.3121 159.913C16.9021 159.628 15.3834 159.664 13.9469 159.664C12.5167 159.663 11.0696 159.611 9.63811 159.681C9.67579 158.486 9.74439 157.162 9.47865 156.044C9.50763 156.013 9.53597 155.981 9.5616 155.943C13.5893 149.938 17.235 143.644 21.0687 137.513C22.5326 135.172 23.9962 132.831 25.4654 130.493C27.5548 130.529 29.717 130.674 31.7731 130.34C32.0724 130.291 32.0726 129.784 31.7731 129.735C29.9067 129.432 27.9528 129.524 26.0454 129.57C26.337 129.107 26.6266 128.643 26.919 128.181C28.4233 125.803 30.0042 123.442 31.3884 120.988C32.1317 122.372 33.2194 123.642 34.1092 124.905C35.0521 126.244 35.9833 127.59 36.9061 128.943C38.7965 131.714 40.6487 134.51 42.5126 137.299C44.621 140.453 46.7088 143.651 48.8906 146.776C47.8348 146.718 46.7567 146.784 45.7183 146.795C44.3186 146.809 42.92 146.855 41.5208 146.896C40.9445 146.913 40.9436 147.775 41.5208 147.792C42.92 147.833 44.3186 147.879 45.7183 147.894C47.0031 147.907 48.3543 148.006 49.6443 147.846C50.9319 149.66 52.2543 151.446 53.641 153.176C53.4922 155.173 53.4416 157.178 53.4272 159.184C50.3099 158.732 46.9425 158.977 43.8386 159.122C43.1646 159.154 43.1634 160.139 43.8386 160.17C46.9413 160.315 50.3068 160.561 53.4225 160.109C53.4177 161.754 53.4273 163.399 53.415 165.04C53.4088 165.872 53.4041 166.704 53.3999 167.537C51.8713 167.405 50.3042 167.45 48.7816 167.432C46.8486 167.411 44.9168 167.43 42.9847 167.485C42.3162 167.504 42.3151 168.505 42.9847 168.524C44.9168 168.578 46.8486 168.598 48.7816 168.576C50.3023 168.559 51.8687 168.603 53.3955 168.472C53.3918 169.39 53.3891 170.308 53.3891 171.226C53.3891 172.921 53.2571 174.707 53.3706 176.425C48.6847 175.556 43.9263 175.058 39.163 174.82Z" fill="#C7C7C7"/>
<path d="M13.3995 127.067C14.0591 127.317 14.6886 127.168 15.1407 126.761C15.8798 127.209 16.7142 127.45 17.5485 127.003C18.3492 126.575 18.8539 125.704 18.4366 124.847C18.2831 124.532 17.7345 124.437 17.5079 124.727C17.3114 124.979 17.1894 125.369 16.9603 125.577C16.4007 126.085 15.7999 125.521 15.3379 125.177C14.9385 124.879 14.4349 125.218 14.2933 125.602C14.0873 126.161 13.4634 125.379 13.3281 125.066C13.1605 124.677 13.1619 124.218 13.1439 123.802C13.112 123.067 12.0536 123.073 12.0061 123.802C11.9255 125.04 12.0473 126.555 13.3995 127.067Z" fill="#C7C7C7"/>
<path d="M50.0792 133.126C50.6632 133.192 51.2701 133.017 51.6892 132.588C52.0697 132.198 52.2754 131.435 51.9275 130.973C51.7232 130.702 51.3649 130.608 51.0973 130.866C50.7717 131.181 50.5478 131.63 50.0148 131.44C49.4624 131.242 49.1988 130.63 49.0197 130.119C48.7195 129.262 47.4168 129.599 47.6461 130.498C47.9605 131.729 48.697 132.969 50.0792 133.126Z" fill="#C7C7C7"/>
<path d="M44.3429 27.4715C38.3216 27.4715 38.4458 27.4715 31.1714 27.4715C23.8971 27.4715 31.1714 27.4715 18 27.4715C18 20.6128 23.8971 15.0527 31.1714 15.0527C38.4458 15.0527 44.3429 20.6128 44.3429 27.4715Z" fill="#B9D1EF" fill-opacity="0.67"/>
<path d="M64.4342 11.2548C58.9771 13.7995 59.0896 13.747 52.4968 16.8213C45.904 19.8956 52.4968 16.8213 40.5594 22.3878C37.6608 16.1717 40.6556 8.64037 47.2484 5.56608C53.8412 2.49179 61.5356 5.03873 64.4342 11.2548Z" fill="#B9D1EF" fill-opacity="0.67"/>
<path d="M83.4769 20.4031C77.4566 20.298 77.5807 20.3002 70.3074 20.1733C63.0342 20.0463 70.3074 20.1733 57.138 19.9434C57.2577 13.0857 63.2509 7.62941 70.5242 7.75636C77.7974 7.88332 83.5966 13.5455 83.4769 20.4031Z" fill="#B9D1EF" fill-opacity="0.67"/>
<path d="M104.931 27.464C98.9139 27.2538 81.3346 28.1775 74.0647 27.9236C66.7947 27.6698 74.0647 27.9236 60.9013 27.464C61.1406 20.6094 67.2281 15.2585 74.4981 15.5124C81.768 15.7663 105.171 20.6094 104.931 27.464Z" fill="#B9D1EF" fill-opacity="0.67"/>
<path d="M35.6874 19.1924H43.2139L53.3747 13.5475H70.6857V27.0952H34.5584L35.6874 19.1924Z" fill="#B9D1EF" fill-opacity="0.67"/>
<path d="M249.747 37.9999C243.862 37.9999 243.983 37.9999 236.874 37.9999C229.764 37.9999 236.874 37.9999 224 37.9999C224 31.2963 229.764 25.862 236.874 25.862C243.983 25.862 249.747 31.2963 249.747 37.9999Z" fill="#B9D1EF" fill-opacity="0.67"/>
<circle cx="278.437" cy="18.5057" r="11.5057" stroke="#FBD24C" stroke-width="2"/>
<path d="M269.384 22.1501C264.05 24.6372 264.16 24.5859 257.717 27.5907C251.273 30.5954 257.717 27.5907 246.049 33.0313C243.216 26.9558 246.143 19.5947 252.587 16.59C259.031 13.5852 266.551 16.0746 269.384 22.1501Z" fill="#B9D1EF" fill-opacity="0.67"/>
<path d="M285.789 32.5625C279.905 32.4598 280.026 32.462 272.918 32.3379C265.809 32.2138 272.918 32.3379 260.046 32.1132C260.163 25.4106 266.021 20.0777 273.129 20.2018C280.238 20.3259 285.906 25.86 285.789 32.5625Z" fill="#B9D1EF" fill-opacity="0.67"/>
<path d="M241.609 29.9081H251.111L263.939 24.3909L282.115 27.3334L285.793 31.3794V37.6322H240.184L241.609 29.9081Z" fill="#B9D1EF" fill-opacity="0.67"/>
<line y1="177.1" x2="393" y2="177.1" stroke="#C7C7C7" stroke-width="1.8"/>
<path d="M110.472 90.4479C111.488 91.3497 112.437 92.2528 112.972 93.53C113.064 93.748 113.064 93.748 113.157 93.9704C113.357 94.4812 113.534 94.9963 113.694 95.5215C113.755 95.5215 113.817 95.5215 113.88 95.5215C113.941 100.437 114.003 105.352 114.066 110.416C115.799 111.351 115.799 111.351 117.604 112.113C118.034 112.502 118.034 112.502 118.535 113.055C118.632 113.158 118.729 113.261 118.83 113.367C120.501 115.319 120.196 118.861 120.386 121.32C120.419 121.737 120.452 122.153 120.485 122.57C120.553 123.44 120.621 124.31 120.688 125.18C120.774 126.288 120.862 127.396 120.95 128.503C121.018 129.363 121.086 130.222 121.152 131.082C121.184 131.49 121.216 131.898 121.249 132.306C121.817 139.449 121.817 139.449 120.268 141.489C119.622 142.199 118.827 142.617 117.976 143.033C117.976 143.095 117.976 143.157 117.976 143.221C117.546 143.221 117.116 143.221 116.673 143.221C116.751 143.515 116.751 143.515 116.832 143.814C117.031 144.555 117.229 145.295 117.427 146.036C117.512 146.354 117.598 146.672 117.683 146.989C117.889 147.758 118.094 148.528 118.295 149.298C118.45 149.892 118.617 150.48 118.795 151.067C118.872 151.337 118.949 151.607 119.026 151.876C119.097 152.112 119.168 152.348 119.242 152.591C119.279 153.214 119.279 153.214 118.879 153.751C118.411 154.109 118.115 154.305 117.557 154.448C117.413 154.487 117.269 154.525 117.121 154.565C116.899 154.62 116.899 154.62 116.673 154.675C116.525 154.714 116.377 154.753 116.225 154.794C115.629 154.949 115.077 155.093 114.462 155.137C114.001 155.262 114.001 155.262 113.772 155.848C113.445 156.673 113.39 157.473 113.344 158.354C113.328 158.609 113.328 158.609 113.312 158.869C113.278 159.429 113.246 159.988 113.215 160.547C113.192 160.938 113.168 161.329 113.144 161.72C113.081 162.748 113.021 163.776 112.962 164.804C112.89 166.049 112.815 167.294 112.74 168.539C112.681 169.509 112.624 170.478 112.567 171.448C112.557 171.628 112.546 171.807 112.536 171.992C112.516 172.323 112.497 172.654 112.478 172.985C112.414 174.066 112.316 175.139 112.204 176.215C111.528 176.153 110.852 176.091 110.156 176.027C110.151 175.253 110.147 174.479 110.144 173.705C110.143 173.485 110.141 173.265 110.14 173.039C110.139 172.828 110.139 172.617 110.138 172.4C110.137 172.205 110.136 172.011 110.135 171.81C110.156 171.313 110.156 171.313 110.342 170.748C110.355 170.263 110.36 169.783 110.354 169.298C110.353 169.166 110.352 169.034 110.351 168.897C110.349 168.571 110.346 168.246 110.342 167.92C110.465 167.92 110.588 167.92 110.715 167.92C110.699 167.734 110.683 167.547 110.667 167.356C110.648 167.114 110.629 166.872 110.61 166.624C110.581 166.263 110.581 166.263 110.551 165.894C110.528 165.28 110.528 165.28 110.715 164.903C110.723 164.399 110.723 163.899 110.715 163.395C110.69 161.937 110.69 161.937 110.901 161.509C110.909 161.129 110.908 160.747 110.901 160.366C110.894 159.993 110.892 159.62 110.901 159.247C110.962 159.185 111.024 159.123 111.087 159.058C111.126 158.559 111.157 158.062 111.18 157.562C111.248 156.093 111.248 156.093 111.459 155.665C110.054 155.788 110.054 155.788 108.667 156.042C108.667 156.104 108.667 156.166 108.667 156.23C108.359 156.23 108.052 156.23 107.736 156.23C107.738 156.479 107.74 156.728 107.742 156.984C107.761 159.326 107.775 161.667 107.784 164.008C107.789 165.212 107.795 166.416 107.806 167.62C107.816 168.781 107.822 169.943 107.824 171.104C107.826 171.547 107.829 171.991 107.834 172.434C107.841 173.055 107.842 173.675 107.841 174.295C107.845 174.479 107.848 174.664 107.852 174.853C107.842 176.092 107.842 176.092 107.308 176.709C106.674 177.037 106.203 177.025 105.501 176.97C105.325 176.435 105.292 176.11 105.293 175.556C105.292 175.295 105.292 175.295 105.292 175.029C105.293 174.744 105.293 174.744 105.294 174.453C105.294 174.253 105.294 174.052 105.294 173.846C105.294 173.181 105.296 172.517 105.297 171.853C105.297 171.393 105.298 170.933 105.298 170.473C105.299 169.262 105.3 168.05 105.302 166.839C105.304 165.603 105.305 164.367 105.306 163.131C105.308 160.705 105.311 158.279 105.315 155.853C104.455 155.853 103.595 155.853 102.709 155.853C102.709 155.916 102.709 155.978 102.709 156.042C102.279 156.042 101.848 156.042 101.405 156.042C101.547 158.366 101.69 160.69 101.833 163.014C101.899 164.093 101.965 165.173 102.031 166.252C102.095 167.295 102.159 168.338 102.223 169.38C102.247 169.777 102.272 170.174 102.296 170.57C102.33 171.128 102.364 171.686 102.399 172.245C102.409 172.406 102.418 172.568 102.428 172.735C102.501 173.897 102.6 175.056 102.709 176.215C101.661 176.427 101.661 176.427 101.033 176.215C100.849 176.215 100.664 176.215 100.474 176.215C100.31 175.009 100.223 173.808 100.154 172.593C100.13 172.188 100.106 171.782 100.082 171.376C100.045 170.74 100.009 170.105 99.9721 169.469C99.9366 168.853 99.9001 168.237 99.8635 167.621C99.8528 167.429 99.8421 167.238 99.8311 167.041C99.8206 166.865 99.81 166.689 99.7991 166.507C99.7902 166.352 99.7812 166.196 99.772 166.036C99.7499 165.644 99.7499 165.644 99.5435 165.28C99.5599 164.863 99.5887 164.447 99.6249 164.031C99.6439 163.807 99.6628 163.583 99.6824 163.352C99.698 163.18 99.7136 163.007 99.7296 162.829C99.6068 162.767 99.4839 162.705 99.3573 162.641C99.3594 162.485 99.3616 162.33 99.3638 162.169C99.3736 160.898 99.3552 159.633 99.2874 158.363C99.2817 158.235 99.276 158.106 99.27 157.973C99.23 157.302 99.1765 156.993 98.7987 156.419C98.7261 156.044 98.6624 155.667 98.6125 155.288C98.4521 155.249 98.4521 155.249 98.2884 155.21C97.7988 155.092 97.3096 154.972 96.8205 154.852C96.6522 154.812 96.484 154.771 96.3106 154.73C94.0978 154.182 94.0978 154.182 93.3993 153.32C93.2131 152.837 93.2131 152.837 93.3644 152.471C93.4373 152.343 93.5103 152.215 93.5855 152.083C93.5855 151.888 93.5855 151.694 93.5855 151.493C93.5855 150.951 93.5855 150.951 93.9578 150.574C94.0773 150.179 94.0773 150.179 94.1557 149.738C94.2989 149.01 94.5061 148.342 94.7491 147.64C95.23 146.187 95.6075 144.7 96.0059 143.221C95.5758 143.221 95.1457 143.221 94.7026 143.221C94.6412 143.097 94.5797 142.972 94.5164 142.844C94.1473 142.709 93.7746 142.584 93.3993 142.467C92.8168 142.172 92.5464 141.625 92.1774 141.094C92.0891 140.987 92.0008 140.88 91.9098 140.77C91.7869 140.77 91.664 140.77 91.5374 140.77C90.9349 138.504 91.1234 136.174 91.3098 133.861C91.3731 132.896 91.367 131.933 91.3512 130.966C91.4741 130.966 91.597 130.966 91.7236 130.966C91.6314 129.847 91.6314 129.847 91.5374 128.704C91.6603 128.704 91.7832 128.704 91.9098 128.704C91.8942 128.545 91.8786 128.386 91.8625 128.222C91.8436 128.016 91.8246 127.809 91.8051 127.596C91.7856 127.391 91.7662 127.185 91.7462 126.973C91.7236 126.442 91.7236 126.442 91.9098 126.064C91.938 125.771 91.9562 125.476 91.9687 125.181C91.9804 124.919 91.9804 124.919 91.9923 124.652C91.9997 124.468 92.007 124.285 92.0145 124.097C92.0226 123.914 92.0306 123.732 92.0389 123.544C92.0678 122.875 92.096 122.209 92.096 121.54C92.2189 121.54 92.3417 121.54 92.4684 121.54C92.4651 121.343 92.4651 121.343 92.4618 121.143C92.4442 119.134 92.549 117.134 92.6545 115.129C92.7774 115.129 92.9003 115.129 93.0269 115.129C93.044 114.99 93.061 114.851 93.0786 114.707C93.2347 114.103 93.4532 113.845 93.8764 113.397C94.3795 112.927 94.3795 112.927 94.5164 112.301C94.6316 112.278 94.7468 112.255 94.8655 112.231C95.2968 112.137 95.2968 112.137 95.6335 111.736C95.91 111.642 95.91 111.642 96.1921 111.547C96.9908 111.174 97.7896 110.801 98.6125 110.416C98.674 105.439 98.7354 100.461 98.7987 95.3329C98.9216 95.2707 99.0445 95.2085 99.1711 95.1444C99.252 94.8766 99.3194 94.6045 99.3805 94.3313C99.7769 92.9224 100.578 91.2879 101.871 90.5252C102.086 90.4319 102.301 90.3386 102.522 90.2424C102.763 90.1091 103.004 89.9755 103.244 89.8418C105.551 88.7115 108.413 88.8335 110.472 90.4479ZM102.522 92.8819C101.222 94.4131 101.155 95.8965 101.161 97.8546C101.158 98.0592 101.155 98.2639 101.152 98.4747C101.151 100.092 101.298 101.56 102.441 102.78C102.553 102.903 102.664 103.025 102.779 103.151C103.07 103.457 103.07 103.457 103.453 103.629C103.607 103.716 103.607 103.716 103.763 103.805C105.128 104.554 106.318 104.71 107.825 104.353C109.363 103.832 110.361 102.813 111.087 101.366C111.592 100.248 111.514 99.0949 111.506 97.89C111.507 97.6813 111.509 97.4727 111.51 97.2577C111.508 96.1663 111.455 95.2306 111.087 94.2017C110.953 94.3378 110.818 94.4739 110.68 94.6141C110.507 94.7891 110.334 94.9641 110.156 95.1444C110.003 95.3038 109.849 95.4632 109.691 95.6275C108.78 96.5262 108.002 97.0158 106.805 97.4068C106.471 97.5177 106.471 97.5177 106.13 97.6307C104.909 97.9283 104.181 97.7643 103.081 97.2183C102.895 97.0298 102.895 97.0298 102.872 96.4641C102.895 95.8985 102.895 95.8985 103.081 95.71C103.415 95.7111 103.748 95.7205 104.082 95.7336C105.85 95.7399 107.261 95.4479 108.555 94.1708C108.959 93.7017 109.228 93.2897 109.411 92.6934C109.375 92.2575 109.375 92.2575 109.039 91.9393C107.9 91.2375 106.803 91.3216 105.501 91.3736C104.383 91.3736 103.315 92.1225 102.522 92.8819ZM101.219 104.383C101.219 106.249 101.219 108.116 101.219 110.039C101.342 109.977 101.465 109.914 101.592 109.85C101.53 108.046 101.469 106.242 101.405 104.383C101.344 104.383 101.282 104.383 101.219 104.383ZM111.273 104.383C111.273 106.249 111.273 108.116 111.273 110.039C111.335 110.039 111.396 110.039 111.459 110.039C111.459 108.172 111.459 106.306 111.459 104.383C111.398 104.383 111.337 104.383 111.273 104.383ZM101.778 104.948C101.541 105.146 101.541 105.146 101.57 105.591C101.571 105.787 101.572 105.984 101.573 106.186C101.574 106.398 101.575 106.61 101.575 106.829C101.577 107.052 101.578 107.275 101.58 107.505C101.581 107.729 101.582 107.953 101.582 108.184C101.585 108.739 101.588 109.295 101.592 109.85C101.74 109.844 101.889 109.837 102.042 109.83C105.074 109.698 108.055 109.65 111.087 109.85C111.087 108.295 111.087 106.739 111.087 105.137C110.287 105.137 109.901 105.46 109.225 105.891C109.164 106.015 109.102 106.14 109.039 106.268C108.552 106.34 108.552 106.34 107.945 106.374C107.326 106.411 106.836 106.446 106.246 106.645C105.792 106.56 105.363 106.462 104.92 106.339C104.733 106.288 104.733 106.288 104.543 106.236C103.535 105.947 102.653 105.535 101.778 104.948ZM101.964 111.924C101.902 112.049 101.841 112.173 101.778 112.301C101.078 112.411 100.388 112.482 99.6831 112.537C98.5581 112.765 97.2039 113.162 96.3783 113.998C96.0424 114.287 95.704 114.573 95.3652 114.858C94.8588 115.331 94.8493 115.75 94.794 116.421C94.7778 116.613 94.7615 116.806 94.7448 117.004C94.7277 117.216 94.7107 117.427 94.6931 117.645C94.6747 117.866 94.6563 118.087 94.6374 118.315C94.5769 119.044 94.5175 119.773 94.4582 120.503C94.4273 120.879 94.3963 121.256 94.3654 121.633C94.2594 122.92 94.1545 124.208 94.0501 125.495C93.9629 126.57 93.8743 127.644 93.7855 128.719C93.715 129.573 93.6455 130.427 93.5764 131.282C93.544 131.68 93.5113 132.079 93.4783 132.477C92.9211 136.273 92.9211 136.273 93.7717 139.828C94.4098 140.536 94.4098 140.536 95.2859 140.828C95.7392 140.835 95.7392 140.835 96.3783 140.77C96.4397 140.77 96.5012 140.77 96.5645 140.77C96.8993 140.262 97.0143 140.001 97.1471 139.429C97.1837 139.273 97.2204 139.118 97.2581 138.958C97.2963 138.79 97.3346 138.623 97.3739 138.45C97.4143 138.278 97.4547 138.105 97.4962 137.927C97.625 137.375 97.7522 136.822 97.8794 136.269C97.9657 135.898 98.0522 135.527 98.1387 135.156C98.5874 133.256 98.5874 133.256 98.9849 131.344C99.0587 130.982 99.1326 130.621 99.2067 130.26C99.2918 129.84 99.3769 129.419 99.462 128.999C99.5273 128.682 99.5273 128.682 99.594 128.359C99.6352 128.154 99.6763 127.949 99.7187 127.738C99.7565 127.553 99.7944 127.367 99.8333 127.176C99.9198 126.604 99.9504 126.077 99.9158 125.499C99.6231 125.108 99.6231 125.108 99.2176 124.792C98.3633 123.992 98.0256 123.214 97.6816 122.105C97.6009 121.884 97.5203 121.662 97.4372 121.434C97.1716 120.089 97.4686 118.98 98.054 117.769C98.4263 117.761 98.7988 117.761 99.1711 117.769C99.2325 117.831 99.294 117.893 99.3573 117.957C99.3562 118.393 99.3469 118.829 99.334 119.265C99.3153 120.756 99.4048 122.047 100.37 123.225C100.606 123.417 100.606 123.417 100.847 123.613C100.981 123.726 101.116 123.839 101.254 123.955C101.576 124.214 101.576 124.214 101.964 124.179C102.045 125.79 101.74 127.309 101.429 128.881C101.4 129.027 101.372 129.173 101.342 129.324C100.322 134.538 99.0431 139.694 97.7165 144.836C97.6538 145.079 97.6538 145.079 97.5897 145.327C97.4685 145.796 97.3466 146.265 97.2241 146.734C97.1855 146.882 97.1468 147.03 97.107 147.182C96.9093 147.93 96.7013 148.674 96.4769 149.414C96.4327 149.561 96.3886 149.707 96.3431 149.858C96.2589 150.135 96.173 150.411 96.0852 150.686C95.8867 151.336 95.7421 151.813 96.0059 152.46C102.146 154.31 110.596 154.896 116.673 152.46C116.933 151.668 116.674 151.064 116.454 150.289C116.386 150.045 116.386 150.045 116.318 149.795C116.221 149.442 116.123 149.089 116.024 148.736C115.763 147.8 115.507 146.863 115.251 145.926C115.198 145.734 115.146 145.542 115.092 145.344C114.734 144.026 114.397 142.704 114.074 141.377C114.031 141.202 113.989 141.028 113.945 140.847C113.742 140.01 113.542 139.173 113.344 138.335C113.272 138.034 113.2 137.734 113.128 137.433C113.096 137.296 113.064 137.158 113.032 137.016C112.954 136.693 112.86 136.375 112.763 136.057C112.64 135.995 112.517 135.933 112.39 135.868C112.398 135.655 112.406 135.441 112.414 135.22C112.414 134.349 112.307 133.488 112.018 132.663C111.895 132.601 111.772 132.539 111.646 132.475C111.653 132.249 111.661 132.024 111.669 131.791C111.67 131.066 111.509 130.522 111.273 129.835C111.215 129.431 111.177 129.028 111.14 128.622C111.08 128.07 110.986 127.53 110.889 126.984C110.569 125.066 110.569 125.066 110.843 124.108C111.087 123.802 111.087 123.802 111.518 123.743C112.19 123.569 112.392 123.263 112.762 122.686C113.3 121.557 113.149 120.211 113.105 118.991C113.137 118.49 113.257 118.196 113.507 117.769C114.043 117.733 114.043 117.733 114.625 117.769C115.356 118.879 115.299 120.238 115.097 121.52C114.783 123.005 114.265 124.089 113.117 125.083C112.728 125.464 112.728 125.464 112.703 125.934C112.919 127.838 113.321 129.698 113.729 131.567C113.805 131.921 113.881 132.274 113.957 132.628C114.38 134.59 114.811 136.552 115.265 138.508C115.308 138.699 115.352 138.89 115.397 139.086C115.437 139.257 115.478 139.428 115.52 139.604C115.554 139.749 115.588 139.894 115.623 140.043C115.727 140.434 115.727 140.434 116.114 140.77C116.176 140.708 116.237 140.646 116.3 140.582C116.3 140.644 116.3 140.706 116.3 140.77C117.214 140.85 117.615 140.881 118.407 140.382C119.431 139.248 119.527 138.349 119.503 136.86C119.511 136.44 119.511 136.44 119.279 136.245C119.266 135.709 119.28 135.174 119.291 134.637C119.332 134.182 119.332 134.182 119.093 133.983C119.084 133.654 119.086 133.325 119.092 132.995C119.103 131.734 119.022 130.491 118.919 129.234C118.902 129.021 118.886 128.808 118.869 128.589C118.879 127.635 118.879 127.635 118.535 126.819C118.525 126.523 118.527 126.226 118.534 125.93C118.545 124.672 118.458 123.43 118.36 122.176C118.344 121.953 118.328 121.73 118.311 121.501C118.295 121.289 118.278 121.078 118.262 120.861C118.247 120.669 118.233 120.478 118.217 120.281C118.208 119.851 118.208 119.851 117.976 119.654C117.967 119.348 117.969 119.041 117.976 118.735C117.976 118.35 117.976 117.965 117.976 117.58C117.978 117.4 117.979 117.22 117.981 117.035C117.944 115.86 117.716 115.164 116.892 114.323C116.043 113.643 115.087 113.212 114.066 112.867C113.904 112.811 113.741 112.755 113.574 112.697C112.062 112.197 110.617 111.918 109.039 111.736C109.039 111.736 109.102 111.615 109.102 111.743L108.108 111.736C108.108 111.673 108.108 111.8 108.108 111.736C107.996 111.736 107.884 111.736 107.769 111.736C104.856 111.672 104.856 111.672 101.964 111.924ZM111.646 131.909C111.832 132.475 111.832 132.475 111.832 132.475L111.646 131.909ZM112.39 135.303C112.577 135.868 112.577 135.868 112.577 135.868L112.39 135.303ZM96.0059 142.844C96.1921 143.221 96.1921 143.221 96.1921 143.221L96.0059 142.844ZM116.486 142.844C116.673 143.221 116.673 143.221 116.673 143.221L116.486 142.844Z" fill="#C7C7C7"/>
<path d="M126.143 83.2411C125.878 79.5916 125.424 77.3486 125.386 77.2346L125.234 76.3982L124.402 76.4743C123.38 76.5503 122.32 76.5883 121.336 76.5883C111.495 76.5883 107.332 72.5206 106.726 71.8744V71.8363L106.65 71.7603L106.045 71L105.969 71.076L105.856 71L105.25 71.7603L105.099 71.8744V71.9124C104.758 72.2545 103.736 73.2049 101.881 74.1553C99.7619 75.2578 96.0527 76.5503 90.5267 76.5503C89.5426 76.5503 88.5207 76.5123 87.4609 76.4363L86.6283 76.3602L86.4769 77.1966C86.439 77.2726 85.9848 79.5536 85.7199 83.2031C85.4549 86.5485 85.3035 91.7566 86.0227 97.497C86.8553 103.96 88.6343 109.814 91.2837 114.87C94.6144 121.181 99.4212 111.221 105.439 114.87L105.856 115.098L106.007 115.022L106.083 115.06L106.423 114.87C107.968 113.4 116.169 106.393 119.5 115.098C122.187 110.08 125.007 103.998 125.84 97.497C126.218 94.3797 126.597 89.3236 126.143 83.2411ZM121.298 77.5767C122.244 77.5767 123.228 77.5387 124.25 77.4627L121.412 80.542L121.487 80.618C120.617 80.694 119.746 80.7321 118.876 80.7321C114.107 80.7321 110.927 79.5916 109.073 78.6412C107.332 77.7288 106.423 76.8164 106.234 76.5883L106.196 76.5503L106.158 76.5123H106.272V72.9008C107.71 74.1933 112.214 77.5767 121.298 77.5767ZM90.2239 81.0742C91.1701 81.1502 92.0407 81.1882 92.8733 81.1882C102.336 81.1882 105.893 76.8164 105.893 76.8164C105.893 76.8164 109.451 81.1882 118.913 81.1882C119.746 81.1882 120.617 81.1502 121.563 81.0742C121.563 81.0742 127.77 96.5086 105.893 109.7C84.0167 96.5086 90.2239 81.0742 90.2239 81.0742ZM105.893 72.4066V76.1702L105.856 76.1321L105.553 76.5123L105.477 76.5883V76.6263C105.25 76.8544 104.379 77.7668 102.676 78.6412C100.859 79.5916 97.6423 80.7321 92.8733 80.7321C92.0407 80.7321 91.1323 80.694 90.2618 80.618H90.1104L87.8773 77.5007C88.7856 77.5767 89.6183 77.5767 90.451 77.5767C101.579 77.5767 105.818 72.4826 105.893 72.4066ZM105.893 114.11C80.4589 98.7896 87.0446 78.8313 87.3095 77.5007L89.7697 80.9221V80.9982C89.7697 81.0742 88.2179 88.7914 89.3912 98.0293C90.0725 103.466 91.5865 108.37 93.8196 112.589C96.6204 117.874 100.853 107.515 105.925 110.556L105.856 110.232L105.931 110.194H105.969L105.925 110.298C110.997 107.256 115.166 117.798 117.967 112.551C120.2 108.332 121.676 103.428 122.396 97.9912C123.569 88.7534 122.055 81.0362 122.017 80.9601L121.941 80.618L124.515 77.8429C125.272 81.9486 130.155 99.4739 105.893 114.11Z" fill="#C7C7C7"/>
<path d="M323.148 174.115C323.354 173.762 323.404 173.443 323.369 173.041C323.335 172.641 323.296 172.187 323.561 171.81C323.966 171.236 327.014 169.392 330.082 167.865C332.948 166.438 336.596 166.261 339.01 166.144C339.505 166.12 339.937 166.099 340.289 166.07C340.528 165.978 341.515 165.586 342.788 164.942C344.169 164.242 348.757 162.419 349.665 162.059C349.842 161.761 350.265 161.165 350.872 161.042C351.633 160.888 355.536 161.204 356.306 161.268C359.63 161.509 365.133 162.887 368.09 163.627C368.789 163.802 369.342 163.941 369.718 164.028C370.504 164.21 371.687 164.465 372.834 164.708C373.228 164.265 373.888 163.409 373.888 163.409V162.637C373.888 162.427 374.029 162.245 374.231 162.196C374.435 162.146 376.255 161.712 377.112 161.796C377.889 161.87 379.59 161.872 379.611 161.872C379.957 161.872 380.174 162.268 379.991 162.565L379.221 163.813C379.157 163.915 379.056 163.988 378.94 164.015C378.704 164.069 376.81 164.501 375.891 164.594L375.554 165.277C375.858 165.34 376.086 165.387 376.203 165.411C376.203 165.411 380.021 164.626 380.099 164.61C380.807 164.466 381.323 165.429 380.973 165.997C380.817 166.25 380.61 166.588 380.453 166.845C380.759 167.078 381.156 167.462 381.358 167.992C381.674 168.824 381.344 169.502 381.228 169.701L380.576 171.445C381.603 172.02 381.525 172.414 381.494 172.572C381.432 172.886 380.743 173.961 380.533 174.283C379.562 175.775 379.349 175.818 379.179 175.853C378.88 175.913 375.117 176.098 373.971 176.153C373.823 176.159 373.682 176.094 373.593 175.974C373.588 175.967 373.585 175.959 373.58 175.952C372.664 177.174 371.203 177.967 369.56 177.967C368.051 177.967 366.697 177.298 365.776 176.242C365.804 176.366 365.783 176.497 365.71 176.603C365.627 176.725 365.489 176.797 365.343 176.797C365.343 176.797 339.886 176.797 339.811 176.797C339.642 176.797 339.465 176.68 339.399 176.51C338.477 177.58 337.114 178.26 335.594 178.26C334.203 178.26 332.942 177.691 332.032 176.775C332.041 177.017 331.669 177.09 331.604 177.09L325.481 177.031C324.616 177.022 323.795 175.857 323.352 175.222C323.055 174.795 322.844 174.636 323.148 174.115ZM375.206 163.955C375.281 163.801 375.436 163.704 375.606 163.704C376.093 163.704 377.761 163.352 378.56 163.172L378.808 162.771C378.236 162.763 377.492 162.743 377.027 162.698C376.529 162.651 375.437 162.856 374.783 162.999V163.573C374.783 163.678 374.746 163.781 374.68 163.862L373.818 164.915C374.108 164.976 374.387 165.035 374.646 165.089L375.206 163.955ZM369.56 177.06C371.834 177.06 373.685 175.217 373.685 172.951C373.685 170.685 371.834 168.842 369.56 168.842C367.286 168.842 365.435 170.685 365.435 172.951C365.435 175.217 367.286 177.06 369.56 177.06ZM335.594 177.353C337.868 177.353 339.719 175.51 339.719 173.244C339.719 170.978 337.868 169.134 335.594 169.134C333.32 169.134 331.469 170.978 331.469 173.244C331.469 175.51 333.32 177.353 335.594 177.353ZM325.574 176.126L330.904 176.176C330.692 175.649 330.436 174.862 330.354 173.988C330.262 173.004 330.375 171.978 330.769 171.068C332.015 168.187 336.24 167.181 338.731 168.939C340.077 169.888 340.908 171.491 341.009 173.336C341.064 174.332 340.771 175.281 340.522 175.891H364.732C364.305 174.349 363.539 170.329 366.493 168.471C368.498 167.211 371.146 167.33 372.934 168.76C374.698 170.171 375.276 172.5 374.561 175.217C376.249 175.133 378.451 175.017 378.928 174.972C379.233 174.666 380.087 173.344 380.457 172.691C380.457 172.691 376.695 172.727 376.684 172.727C376.31 172.73 376.288 172.126 376.682 172.122C377.742 172.112 378.803 172.09 379.862 172.093C379.64 171.986 379.535 171.668 379.597 171.504C379.597 171.504 380.401 169.351 380.406 169.339C380.718 168.503 380.429 167.805 379.642 167.39C379.411 167.268 379.323 166.974 379.461 166.747C379.461 166.747 379.891 166.04 380.187 165.558C380.008 165.588 376.292 166.318 376.292 166.318C376.233 166.33 376.173 166.33 376.114 166.318C373.36 165.753 370.603 165.192 367.875 164.507C364.944 163.773 359.489 162.407 356.237 162.172C354.492 162.026 351.54 161.831 351.047 161.931C350.777 161.986 350.48 162.423 350.378 162.625C350.236 162.907 349.698 163.02 349.42 163.13C349.544 163.738 343.343 166.55 342.959 166.634C342.555 166.721 341.428 166.809 340.832 166.829C340.274 167.054 339.644 167.021 339.053 167.05C336.713 167.163 333.177 167.335 330.477 168.678C327.107 170.356 324.554 172.003 324.29 172.337C324.216 172.441 324.24 172.718 324.261 172.962C324.309 173.509 324.229 174.039 323.954 174.516C324.157 174.911 324.865 175.82 325.574 176.126Z" fill="#C7C7C7"/>
<path d="M369.56 175.428C368.19 175.428 367.078 174.319 367.078 172.951C367.078 171.584 368.19 170.475 369.56 170.475C370.931 170.475 372.042 171.584 372.042 172.951C372.042 174.319 370.931 175.428 369.56 175.428Z" fill="#C7C7C7"/>
<path d="M335.594 175.74C334.224 175.74 333.112 174.631 333.112 173.263C333.112 171.896 334.224 170.787 335.594 170.787C336.965 170.787 338.076 171.896 338.076 173.263C338.076 174.631 336.965 175.74 335.594 175.74Z" fill="#C7C7C7"/>
<path d="M361.82 164.82C359.971 165.522 357.314 166.166 356.505 166.341C355.697 166.517 345.414 166.458 345.414 166.458C345.414 166.458 349.458 163.534 353.097 163.183C356.736 162.832 361.704 164.118 362.224 164.294C362.744 164.469 361.82 164.82 361.82 164.82Z" fill="#C7C7C7"/>
<path d="M362.782 166.069C363.938 165.874 365.401 165.679 363.938 166.887C363.387 167.342 363.321 167.316 362.859 167.277C362.397 167.238 360.129 166.988 359.894 166.809C359.586 166.576 361.627 166.264 362.782 166.069Z" fill="#C7C7C7"/>
<path d="M357.853 168.262C358.225 168.262 358.242 168.867 357.853 168.867C357.853 168.867 356.093 168.867 356.082 168.867C355.696 168.867 355.695 168.262 356.082 168.262C356.082 168.262 357.845 168.262 357.853 168.262Z" fill="#C7C7C7"/>
<path d="M327.908 172.441C328.232 172.372 328.459 172.431 328.581 172.616C328.809 172.966 328.49 173.463 327.906 174.313C327.686 174.633 327.194 174.291 327.416 173.968C327.578 173.733 327.877 173.297 328.001 173.039C326.802 173.296 325.943 173.58 325.769 173.717C325.625 173.831 326.311 174.084 326.394 174.074C326.773 174.029 326.849 174.629 326.464 174.675C325.984 174.732 325.463 174.479 325.249 174.031C325.121 173.764 325.152 173.485 325.332 173.303C325.673 172.958 327.092 172.615 327.908 172.441Z" fill="#C7C7C7"/>
<path d="M343.989 174.228C343.989 174.228 360.442 174.228 360.51 174.228C360.884 174.228 360.897 174.833 360.51 174.833C360.51 174.833 344.06 174.833 343.99 174.833C343.601 174.833 343.604 174.228 343.989 174.228Z" fill="#C7C7C7"/>
<path d="M394.332 104.067L363.286 65.812L316.424 123.611" stroke="#D9D9D9" stroke-width="4"/>
<path d="M333.501 100.343L322.391 87.2406L299 112.354" stroke="#D9D9D9" stroke-width="3.5"/>
<path d="M294.219 113.627C294.334 113.688 294.449 113.75 294.567 113.813C295.111 114.2 295.5 114.624 295.962 115.118C296.19 115.32 296.419 115.522 296.648 115.723C297.707 116.708 298.521 117.904 298.751 119.405C298.871 123.185 298.614 127.001 298.492 130.779C298.461 131.732 298.432 132.686 298.404 133.639C298.371 134.798 298.335 135.956 298.296 137.115C298.282 137.553 298.269 137.992 298.257 138.431C298.24 139.046 298.219 139.66 298.197 140.275C298.191 140.542 298.191 140.542 298.185 140.816C298.111 142.647 297.599 144.281 296.485 145.686C296.312 145.748 296.14 145.809 295.962 145.873C295.962 145.996 295.962 146.119 295.962 146.245C295.836 146.268 295.71 146.291 295.581 146.315C295.093 146.431 294.67 146.577 294.219 146.804C294.161 146.927 294.104 147.051 294.044 147.177C293.904 147.143 293.764 147.108 293.619 147.072C293.472 147.046 293.325 147.019 293.173 146.991C293.115 147.052 293.058 147.114 292.998 147.177C292.65 147.185 292.301 147.185 291.952 147.177C291.94 147.47 291.94 147.47 291.926 147.769C291.913 148.026 291.9 148.283 291.887 148.54C291.879 148.733 291.879 148.733 291.871 148.93C291.834 149.613 291.792 149.951 291.429 150.532C291.339 151.051 291.339 151.051 291.292 151.652C291.257 152.007 291.257 152.007 291.222 152.37C291.204 152.563 291.204 152.563 291.185 152.759C290.603 158.809 289.564 164.805 288.526 170.781C288.45 171.22 288.374 171.659 288.299 172.097C288.193 172.71 288.086 173.321 287.977 173.933C287.946 174.114 287.915 174.295 287.883 174.482C287.716 175.411 287.517 176.18 287.071 177C285.894 176.674 285.894 176.674 285.502 176.255C285.5 175.917 285.5 175.917 285.557 175.509C285.657 174.73 285.728 173.955 285.785 173.171C285.851 172.713 285.851 172.713 286.015 172.199C286.327 171.177 286.477 170.122 286.657 169.067C286.697 168.84 286.737 168.612 286.778 168.378C286.816 168.159 286.854 167.94 286.893 167.715C286.927 167.516 286.961 167.317 286.997 167.112C287.065 166.608 287.085 166.138 287.071 165.63C287.186 165.63 287.301 165.63 287.42 165.63C287.362 165.261 287.305 164.892 287.245 164.512C287.36 164.512 287.475 164.512 287.594 164.512C287.536 164.143 287.479 163.774 287.42 163.393C287.535 163.393 287.65 163.393 287.768 163.393C287.826 162.286 287.883 161.179 287.943 160.038C288.058 160.038 288.173 160.038 288.291 160.038C288.291 159.3 288.291 158.562 288.291 157.802C288.406 157.802 288.521 157.802 288.64 157.802C288.638 157.615 288.636 157.429 288.634 157.237C288.632 156.997 288.631 156.756 288.629 156.509C288.627 156.269 288.625 156.028 288.623 155.781C288.64 155.192 288.64 155.192 288.814 155.006C288.821 154.571 288.822 154.136 288.814 153.701C288.929 153.701 289.044 153.701 289.163 153.701C289.131 153.459 289.098 153.217 289.065 152.967C289.01 152.554 289.01 152.554 288.989 152.21C289.046 152.148 289.104 152.087 289.163 152.023C289.443 150.18 289.397 148.259 289.435 146.397C289.439 146.228 289.443 146.06 289.447 145.886C289.512 142.921 289.526 139.958 289.505 136.992C289.504 136.765 289.504 136.765 289.503 136.534C289.502 136.253 289.499 135.971 289.496 135.689C289.494 135.115 289.515 134.679 289.686 134.13C289.697 133.615 289.698 133.105 289.691 132.59C289.689 132.274 289.686 131.958 289.684 131.642C289.68 131.148 289.675 130.654 289.669 130.16C289.645 128.03 289.727 125.986 290.035 123.878C290.667 123.878 291.3 123.878 291.952 123.878C291.963 126.426 291.931 128.97 291.876 131.517C291.868 131.896 291.86 132.275 291.853 132.655C291.832 133.641 291.812 134.626 291.791 135.612C291.769 136.623 291.749 137.634 291.728 138.645C291.687 140.619 291.645 142.594 291.604 144.568C291.965 144.579 292.325 144.587 292.686 144.593C292.887 144.598 293.088 144.603 293.295 144.608C294.126 144.55 294.665 144.239 295.265 143.636C295.869 142.781 295.979 141.992 296.017 140.942C296.024 140.74 296.032 140.538 296.039 140.33C296.046 140.114 296.053 139.898 296.06 139.675C296.068 139.453 296.075 139.231 296.083 139.002C296.136 137.291 296.149 135.582 296.13 133.87C296.128 133.696 296.127 133.523 296.125 133.345C296.123 133.194 296.121 133.044 296.119 132.889C296.136 132.452 296.136 132.452 296.221 132.031C296.319 131.473 296.348 130.941 296.368 130.374C296.376 130.147 296.384 129.92 296.392 129.686C296.4 129.442 296.408 129.198 296.416 128.947C296.425 128.693 296.433 128.438 296.441 128.183C296.459 127.65 296.475 127.117 296.492 126.584C296.513 125.904 296.536 125.223 296.561 124.543C296.579 124.017 296.595 123.492 296.611 122.966C296.623 122.594 296.637 122.222 296.65 121.85C296.699 120.122 296.687 118.97 295.537 117.657C295.401 117.498 295.264 117.339 295.124 117.175C294.757 116.758 294.757 116.758 294.219 116.609C294.044 116.422 293.87 116.236 293.696 116.05C293.523 115.988 293.35 115.927 293.173 115.863C293.025 115.74 293.025 115.74 292.875 115.614C292.334 115.195 291.745 114.922 291.135 114.64C291.01 114.582 290.886 114.524 290.757 114.464C289.654 113.964 288.61 113.692 287.42 113.533C287.247 113.503 287.075 113.472 286.897 113.44C286.839 113.317 286.782 113.194 286.722 113.067C286.613 113.072 286.504 113.076 286.391 113.08C286.178 113.086 286.178 113.086 285.96 113.091C285.747 113.097 285.747 113.097 285.531 113.104C285.153 113.067 285.153 113.067 284.805 112.695C284.805 112.756 284.805 112.818 284.805 112.881C283.606 112.718 283.606 112.718 283.41 112.508C283.41 112.57 283.41 112.631 283.41 112.695C283.134 112.7 282.858 112.703 282.582 112.706C282.351 112.709 282.351 112.709 282.116 112.713C281.701 112.696 281.367 112.627 280.969 112.508C280.563 112.443 280.156 112.38 279.749 112.322C279.749 112.445 279.749 112.568 279.749 112.695C279.462 112.7 279.175 112.703 278.888 112.706C278.649 112.709 278.649 112.709 278.404 112.713C278.006 112.695 278.006 112.695 277.831 112.508C277.366 112.482 276.903 112.5 276.437 112.508C276.379 112.693 276.322 112.877 276.262 113.067C276.151 113.033 276.04 112.998 275.925 112.963C275.806 112.936 275.687 112.909 275.565 112.881C275.508 112.942 275.45 113.004 275.391 113.067C275.204 113.087 275.017 113.106 274.824 113.126C273.763 113.254 272.723 113.586 271.73 113.999C271.672 114.122 271.615 114.245 271.555 114.372C271.122 114.526 270.797 114.559 270.335 114.559C270.028 114.712 270.028 114.712 269.725 114.92C269.336 115.174 269.032 115.334 268.592 115.49C266.975 116.454 265.505 117.542 264.757 119.405C264.689 120.006 264.689 120.006 264.717 120.645C264.719 120.765 264.721 120.885 264.724 121.009C264.732 121.406 264.744 121.803 264.757 122.201C264.764 122.481 264.771 122.761 264.778 123.042C264.802 123.975 264.833 124.909 264.865 125.843C264.876 126.189 264.887 126.535 264.899 126.881C264.922 127.602 264.946 128.324 264.97 129.045C265.001 129.958 265.031 130.871 265.061 131.784C265.084 132.498 265.107 133.212 265.131 133.925C265.142 134.261 265.153 134.597 265.164 134.933C265.19 135.717 265.217 136.5 265.246 137.283C265.271 137.95 265.288 138.617 265.302 139.284C265.312 139.633 265.321 139.982 265.331 140.331C265.333 140.491 265.335 140.65 265.337 140.815C265.372 141.88 265.564 142.755 266.151 143.636C266.635 143.997 266.635 143.997 267.023 144.195C267.282 144.38 267.282 144.38 267.546 144.568C268.103 144.654 268.103 144.654 268.712 144.684C268.917 144.698 269.123 144.712 269.335 144.726C269.571 144.74 269.571 144.74 269.812 144.754C269.792 143.762 269.77 142.771 269.747 141.779C269.74 141.442 269.732 141.105 269.725 140.768C269.715 140.282 269.704 139.797 269.693 139.312C269.69 139.162 269.687 139.011 269.684 138.857C269.67 138.294 269.656 137.764 269.548 137.212C269.416 136.474 269.446 135.739 269.453 134.99C269.453 134.822 269.454 134.655 269.455 134.482C269.457 133.949 269.46 133.416 269.464 132.883C269.468 132.18 269.472 131.476 269.474 130.773C269.476 130.61 269.477 130.448 269.479 130.281C269.505 129.477 269.505 129.477 269.289 128.724C269.286 128.359 269.295 127.993 269.31 127.628C269.319 127.41 269.327 127.193 269.336 126.969C269.35 126.627 269.35 126.627 269.365 126.278C269.375 126.049 269.384 125.819 269.393 125.583C269.416 125.014 269.439 124.446 269.464 123.878C270.096 123.878 270.729 123.878 271.381 123.878C271.535 126.292 271.601 128.702 271.643 131.121C271.65 131.509 271.657 131.897 271.664 132.285C271.683 133.3 271.701 134.315 271.719 135.331C271.719 144.374 271.719 144.374 272.351 153.375C272.365 153.495 272.38 153.616 272.394 153.74C272.977 158.626 273.753 163.493 274.61 168.332C274.646 168.537 274.682 168.741 274.719 168.952C274.894 169.935 275.071 170.917 275.252 171.899C275.285 172.079 275.318 172.259 275.351 172.444C275.412 172.777 275.473 173.11 275.536 173.442C275.713 174.425 275.87 175.441 275.739 176.441C275.391 176.814 275.391 176.814 274.879 176.884C274.345 176.814 274.345 176.814 274.062 176.494C273.801 176.032 273.71 175.678 273.626 175.148C273.6 174.992 273.574 174.837 273.548 174.677C273.523 174.521 273.499 174.365 273.473 174.204C273.416 173.893 273.358 173.583 273.299 173.272C273.236 172.931 273.174 172.589 273.114 172.247C273.083 172.076 273.052 171.905 273.02 171.729C272.953 171.24 272.938 170.783 272.95 170.29C272.835 170.228 272.72 170.167 272.601 170.104C272.539 169.741 272.539 169.741 272.51 169.273C272.437 168.311 272.302 167.375 272.143 166.425C272.088 166.088 272.033 165.751 271.978 165.414C271.892 164.891 271.805 164.368 271.719 163.845C271.634 163.334 271.551 162.824 271.468 162.313C271.441 162.157 271.415 162.002 271.388 161.842C271.259 161.043 271.177 160.293 271.207 159.479C271.092 159.418 270.977 159.356 270.858 159.293C270.916 158.985 270.973 158.678 271.032 158.361C270.917 158.299 270.802 158.238 270.684 158.174C270.618 157.665 270.618 157.665 270.586 157.021C270.553 156.396 270.516 155.793 270.418 155.175C270.338 154.649 270.318 154.164 270.324 153.631C270.326 153.468 270.327 153.305 270.329 153.137C270.331 153.016 270.333 152.894 270.335 152.769C270.22 152.708 270.105 152.646 269.986 152.583C269.952 151.791 269.92 150.998 269.888 150.206C269.874 149.869 269.874 149.869 269.859 149.525C269.85 149.308 269.842 149.092 269.833 148.869C269.825 148.67 269.817 148.471 269.808 148.266C269.812 147.736 269.812 147.736 269.986 146.991C269.411 147.052 268.836 147.114 268.243 147.177C268.243 147.054 268.243 146.931 268.243 146.804C268.146 146.8 268.049 146.795 267.949 146.79C266.414 146.668 265.352 146.049 264.234 144.941C264.176 144.818 264.118 144.695 264.059 144.568C264.005 144.464 263.951 144.36 263.896 144.253C263.403 143.107 263.303 142.026 263.264 140.782C263.271 139.754 263.271 139.754 263.013 138.79C263 138.429 262.999 138.067 263.002 137.706C263.004 137.383 263.004 137.383 263.006 137.052C263.011 136.595 263.015 136.138 263.02 135.681C263.022 135.357 263.022 135.357 263.024 135.027C263.026 134.828 263.028 134.629 263.03 134.425C263.044 133.946 263.044 133.946 262.839 133.571C262.836 133.191 262.845 132.812 262.86 132.433C262.868 132.207 262.877 131.982 262.886 131.749C262.895 131.512 262.905 131.275 262.915 131.031C262.924 130.793 262.933 130.554 262.943 130.309C262.965 129.718 262.989 129.128 263.013 128.538C262.898 128.476 262.783 128.415 262.665 128.352C262.647 127.085 262.635 125.818 262.626 124.552C262.623 124.122 262.618 123.691 262.612 123.261C262.603 122.64 262.6 122.019 262.596 121.398C262.593 121.208 262.589 121.018 262.586 120.822C262.585 118.983 263.053 117.556 264.255 116.236C264.407 116.067 264.558 115.898 264.714 115.723C265.798 114.561 265.798 114.561 266.5 114.186C266.615 114.063 266.73 113.94 266.849 113.813C267.021 113.751 267.194 113.69 267.372 113.627C267.713 113.433 268.055 113.239 268.396 113.044C276.457 108.646 286.282 109.342 294.219 113.627Z" fill="#C7C7C7"/>
<path d="M284.979 90.5135C285.152 90.6057 285.152 90.6057 285.328 90.6999C287.152 92.6734 287.832 94.7089 287.848 97.4683C287.848 97.593 287.847 97.7177 287.846 97.8461C287.845 98.2237 287.85 98.6008 287.855 98.9783C287.854 101.366 287.418 103.297 285.851 105.052C285.453 105.437 285.042 105.802 284.63 106.17C284.63 106.293 284.63 106.417 284.63 106.543C284.497 106.562 284.364 106.582 284.227 106.602C283.756 106.685 283.756 106.685 283.497 107.009C283.146 107.385 282.85 107.421 282.364 107.475C282.306 107.414 282.249 107.352 282.19 107.289C281.866 107.293 281.542 107.299 281.218 107.311C279.132 107.379 277.488 106.974 275.914 105.425C274.033 103.469 273.488 101.424 273.432 98.6595C273.417 96.3603 273.699 94.4436 274.693 92.3774C274.751 92.2544 274.808 92.1314 274.868 92.0046C275.059 91.8163 275.256 91.6345 275.456 91.4571C276.226 90.8001 276.226 90.8001 276.785 89.9543C277.075 89.8866 277.366 89.8263 277.657 89.7679C277.759 89.7232 277.861 89.6785 277.966 89.6325C280.295 88.6135 282.895 89.1277 284.979 90.5135ZM280.272 91.259C280.272 91.3206 280.272 91.3821 280.272 91.4454C280.732 91.4454 281.193 91.4454 281.667 91.4454C281.667 91.3839 281.667 91.3224 281.667 91.259C281.206 91.259 280.746 91.259 280.272 91.259ZM279.196 91.3712C277.487 92.0966 276.561 93.0401 275.739 94.8005C275.417 95.8784 275.518 97.0604 275.511 98.1789C275.506 98.4177 275.5 98.6565 275.495 98.9026C275.483 100.917 275.798 102.468 277.134 103.934C277.249 103.995 277.364 104.057 277.483 104.12C277.829 104.357 278.173 104.596 278.516 104.837C279.521 105.437 280.725 105.342 281.841 105.239C283.169 104.825 284.133 104.025 284.979 102.874C285.069 102.754 285.159 102.634 285.251 102.51C286.003 101.189 285.909 99.7612 285.905 98.2604C285.908 98.0388 285.911 97.8171 285.914 97.5888C285.915 95.8247 285.667 94.5478 284.63 93.123C284.296 92.7836 283.951 92.4934 283.584 92.191C283.473 92.0834 283.361 91.9757 283.247 91.8648C282.375 91.3003 281.282 91.4313 280.296 91.4571C279.822 91.4423 279.666 91.2321 279.196 91.3712Z" fill="#C7C7C7"/>
<line x1="281.683" y1="154.886" x2="281.683" y2="177" stroke="#C7C7C7" stroke-width="2"/>
<path d="M300.641 83.6537C300.376 79.8812 299.922 77.5626 299.884 77.4448L299.733 76.5802L298.9 76.6588C297.878 76.7374 296.819 76.7767 295.835 76.7767C285.994 76.7767 281.831 72.5719 281.225 71.9038V71.8645L281.15 71.7859L280.544 71L280.468 71.0786L280.355 71L279.749 71.7859L279.598 71.9038V71.9431C279.257 72.2968 278.235 73.2792 276.381 74.2617C274.261 75.4013 270.552 76.7374 265.027 76.7374C264.042 76.7374 263.021 76.6981 261.961 76.6195L261.128 76.5409L260.977 77.4055C260.939 77.4841 260.485 79.8419 260.22 83.6144C259.955 87.0726 259.804 92.4563 260.523 98.3902C261.355 105.071 263.134 111.123 265.783 116.349C269.114 122.872 273.921 112.577 279.939 116.349L280.355 116.585L280.506 116.506L280.582 116.546L280.923 116.349C286.978 112.577 291.143 107.586 294.474 116.585C297.161 111.398 299.506 105.11 300.338 98.3902C300.717 95.1678 301.095 89.9413 300.641 83.6537ZM295.797 77.7984C296.743 77.7984 297.727 77.7591 298.749 77.6805L295.91 80.8636L295.986 80.9422C295.115 81.0208 294.245 81.0601 293.374 81.0601C288.606 81.0601 285.426 79.8812 283.572 78.8988C281.831 77.9556 280.923 77.0125 280.733 76.7767L280.695 76.7374L280.658 76.6981H280.771V72.9649C282.209 74.301 286.713 77.7984 295.797 77.7984ZM264.724 81.4138C265.67 81.4924 266.54 81.5317 267.373 81.5317C276.835 81.5317 280.393 77.0125 280.393 77.0125C280.393 77.0125 283.95 81.5317 293.412 81.5317C294.245 81.5317 295.115 81.4924 296.062 81.4138C296.062 81.4138 302.269 97.3685 280.393 111.005C258.517 97.3685 264.724 81.4138 264.724 81.4138ZM280.393 72.454V76.3444L280.355 76.3051L280.052 76.6981L279.976 76.7767V76.816C279.749 77.0518 278.879 77.9949 277.176 78.8988C275.359 79.8812 272.142 81.0601 267.373 81.0601C266.54 81.0601 265.632 81.0208 264.762 80.9422H264.61L262.377 77.7198C263.286 77.7984 264.118 77.7984 264.951 77.7984C276.078 77.7984 280.317 72.5326 280.393 72.454ZM280.393 115.563C254.959 99.7263 261.545 79.0952 261.809 77.7198L264.27 81.2566V81.3352C264.27 81.4138 262.718 89.3911 263.891 98.9404C264.572 104.56 266.086 109.629 268.319 113.991C271.12 119.454 275.094 108.293 280.166 111.437L280.355 111.555L280.431 111.515H280.468L280.62 111.398C285.691 108.254 289.665 119.375 292.466 113.952C294.699 109.59 296.175 104.521 296.894 98.9011C298.068 89.3518 296.554 81.3745 296.516 81.2959L296.44 80.9422L299.014 78.0735C299.771 82.3176 304.653 100.434 280.393 115.563Z" fill="#C7C7C7"/>
<path fill-rule="evenodd" clip-rule="evenodd" d="M187.25 81C187.25 79.7402 187.75 78.532 188.641 77.6412C189.532 76.7504 190.74 76.25 192 76.25C193.26 76.25 194.468 76.7504 195.359 77.6412C196.25 78.532 196.75 79.7402 196.75 81C196.75 82.2598 196.25 83.468 195.359 84.3588C194.468 85.2496 193.26 85.75 192 85.75C190.74 85.75 189.532 85.2496 188.641 84.3588C187.75 83.468 187.25 82.2598 187.25 81ZM192 77.75C191.138 77.75 190.311 78.0924 189.702 78.7019C189.092 79.3114 188.75 80.138 188.75 81C188.75 81.862 189.092 82.6886 189.702 83.2981C190.311 83.9076 191.138 84.25 192 84.25C192.862 84.25 193.689 83.9076 194.298 83.2981C194.908 82.6886 195.25 81.862 195.25 81C195.25 80.138 194.908 79.3114 194.298 78.7019C193.689 78.0924 192.862 77.75 192 77.75Z" fill="#C7C7C7"/>
<path fill-rule="evenodd" clip-rule="evenodd" d="M183.524 79.857C183.695 77.784 184.64 75.8511 186.17 74.442C187.7 73.0329 189.704 72.2505 191.784 72.25H192.216C194.296 72.2505 196.3 73.0329 197.83 74.442C199.36 75.8511 200.305 77.784 200.476 79.857C200.667 82.1663 199.953 84.4595 198.486 86.253L193.693 92.114C193.488 92.3648 193.23 92.567 192.937 92.7057C192.644 92.8445 192.324 92.9165 192 92.9165C191.676 92.9165 191.356 92.8445 191.063 92.7057C190.77 92.567 190.512 92.3648 190.307 92.114L185.514 86.253C184.047 84.4595 183.333 82.1663 183.524 79.857ZM191.784 73.75C190.081 73.7507 188.44 74.3916 187.187 75.5456C185.934 76.6996 185.16 78.2824 185.02 79.98C184.861 81.9019 185.455 83.8103 186.676 85.303L191.469 91.165C191.533 91.2439 191.615 91.3074 191.707 91.351C191.799 91.3947 191.899 91.4173 192.001 91.4173C192.103 91.4173 192.203 91.3947 192.295 91.351C192.387 91.3074 192.469 91.2439 192.533 91.165L197.326 85.303C198.546 83.81 199.139 81.9016 198.98 79.98C198.84 78.2822 198.066 76.6993 196.813 75.5453C195.56 74.3913 193.919 73.7505 192.215 73.75H191.784Z" fill="#C7C7C7"/>
<path d="M237.375 117.75H243C245.119 117.75 246.181 117.75 246.838 117.091C247.495 116.432 247.5 115.372 247.5 113.25V107.625M205.5 92.75L246.375 116.625M148.125 120.75H142.5C140.378 120.75 139.318 120.75 138.659 120.091C138 119.431 138 118.372 138 116.25V110.625M180 92.75L139.125 119.625" stroke="#C7C7C7" stroke-width="2" stroke-linecap="round" stroke-linejoin="round"/>
<path d="M184.5 72.5V72.5C188.642 68.3579 195.358 68.3579 199.5 72.5V72.5" stroke="#C7C7C7" stroke-width="1.5"/>
<path d="M183 70V70C188.133 65.4376 195.867 65.4376 201 70V70" stroke="#C7C7C7" stroke-width="1.5"/>
<path d="M182 67.5V67.5C187.685 62.3835 196.315 62.3835 202 67.5V67.5" stroke="#C7C7C7" stroke-width="1.5"/>
</svg>
