<svg width="19" height="17" viewBox="0 0 19 17" fill="none" xmlns="http://www.w3.org/2000/svg">
<path d="M17.6934 17C15.5187 17 13.3701 16.5712 11.2476 15.7137C9.12507 14.8561 7.19393 13.64 5.45417 12.0653C3.7144 10.4906 2.37061 8.74335 1.42278 6.82361C0.474956 4.90387 0.000695906 2.95989 0 0.991667C0 0.708334 0.104386 0.472222 0.313158 0.283333C0.52193 0.0944444 0.782895 0 1.09605 0H5.32368C5.56725 0 5.78472 0.0749258 5.9761 0.224778C6.16747 0.37463 6.28056 0.551556 6.31535 0.755556L6.99386 4.06111C7.02866 4.31296 7.01996 4.52546 6.96776 4.69861C6.91557 4.87176 6.81988 5.0213 6.6807 5.14722L4.14934 7.46111C4.4973 8.04352 4.91032 8.60609 5.3884 9.14883C5.86649 9.69157 6.39294 10.2151 6.96776 10.7194C7.50709 11.2074 8.07252 11.6601 8.66404 12.0776C9.25556 12.495 9.88187 12.8766 10.543 13.2222L12.9961 11.0028C13.1526 10.8611 13.3572 10.755 13.6098 10.6845C13.8625 10.614 14.1102 10.5941 14.3531 10.625L17.9544 11.2861C18.198 11.3491 18.398 11.4634 18.5546 11.6289C18.7112 11.7945 18.7895 11.9793 18.7895 12.1833V16.0083C18.7895 16.2917 18.6851 16.5278 18.4763 16.7167C18.2675 16.9056 18.0066 17 17.6934 17Z" fill="black"/>
</svg>
