<svg width="19" height="17" viewBox="0 0 19 17" fill="none" xmlns="http://www.w3.org/2000/svg">
<path d="M16.5 4.54167L12.125 4.54167V2.16667C12.125 1.29584 11.3375 0.583336 10.375 0.583336L8.625 0.583336C7.6625 0.583336 6.875 1.29584 6.875 2.16667V4.54167H2.5C1.5375 4.54167 0.75 5.25417 0.75 6.125L0.75 14.8333C0.75 15.7042 1.5375 16.4167 2.5 16.4167H16.5C17.4625 16.4167 18.25 15.7042 18.25 14.8333V6.125C18.25 5.25417 17.4625 4.54167 16.5 4.54167ZM8.625 2.16667H10.375V6.125L8.625 6.125V2.16667ZM5.125 11.6667H4.25C3.76875 11.6667 3.375 11.3104 3.375 10.875C3.375 10.4396 3.76875 10.0833 4.25 10.0833H5.125V9.29167C5.125 8.85625 5.51875 8.5 6 8.5C6.48125 8.5 6.875 8.85625 6.875 9.29167V10.0833H7.75C8.23125 10.0833 8.625 10.4396 8.625 10.875C8.625 11.3104 8.23125 11.6667 7.75 11.6667H6.875V12.4583C6.875 12.8938 6.48125 13.25 6 13.25C5.51875 13.25 5.125 12.8938 5.125 12.4583V11.6667ZM11.0313 10.4792C10.6725 10.4792 10.375 10.21 10.375 9.88542C10.375 9.56084 10.6725 9.29167 11.0313 9.29167H14.9688C15.3275 9.29167 15.625 9.56084 15.625 9.88542C15.625 10.21 15.3275 10.4792 14.9688 10.4792H11.0313ZM11.0313 12.8542C10.6725 12.8542 10.375 12.585 10.375 12.2604C10.375 11.9358 10.6725 11.6667 11.0313 11.6667H13.2188C13.5775 11.6667 13.875 11.9358 13.875 12.2604C13.875 12.585 13.5775 12.8542 13.2188 12.8542H11.0313Z" fill="black"/>
</svg>
