<svg width="28" height="28" viewBox="0 0 28 28" fill="none" xmlns="http://www.w3.org/2000/svg">
<path fill-rule="evenodd" clip-rule="evenodd" d="M18.6666 10.4999C18.6666 11.7376 18.175 12.9246 17.2998 13.7997C16.4246 14.6749 15.2377 15.1666 14 15.1666C12.7623 15.1666 11.5753 14.6749 10.7001 13.7997C9.82498 12.9246 9.33331 11.7376 9.33331 10.4999C9.33331 9.26224 9.82498 8.07526 10.7001 7.20009C11.5753 6.32492 12.7623 5.83325 14 5.83325C15.2377 5.83325 16.4246 6.32492 17.2998 7.20009C18.175 8.07526 18.6666 9.26224 18.6666 10.4999ZM16.3333 10.4999C16.3333 11.1188 16.0875 11.7122 15.6499 12.1498C15.2123 12.5874 14.6188 12.8333 14 12.8333C13.3811 12.8333 12.7876 12.5874 12.3501 12.1498C11.9125 11.7122 11.6666 11.1188 11.6666 10.4999C11.6666 9.88108 11.9125 9.28759 12.3501 8.85C12.7876 8.41242 13.3811 8.16658 14 8.16658C14.6188 8.16658 15.2123 8.41242 15.6499 8.85C16.0875 9.28759 16.3333 9.88108 16.3333 10.4999Z" fill="#1E1E1E"/>
<path fill-rule="evenodd" clip-rule="evenodd" d="M14 1.16663C6.91249 1.16663 1.16666 6.91246 1.16666 14C1.16666 21.0875 6.91249 26.8333 14 26.8333C21.0875 26.8333 26.8333 21.0875 26.8333 14C26.8333 6.91246 21.0875 1.16663 14 1.16663ZM3.49999 14C3.49999 16.4383 4.33182 18.683 5.72599 20.4656C6.70534 19.1801 7.9685 18.1383 9.4169 17.4215C10.8653 16.7047 12.4598 16.3322 14.0758 16.3333C15.6711 16.3314 17.2457 16.6939 18.6796 17.3931C20.1135 18.0922 21.3688 19.1096 22.3498 20.3676C23.3607 19.0418 24.0413 17.4944 24.3354 15.8533C24.6294 14.2122 24.5285 12.5247 24.0409 10.9304C23.5533 9.33613 22.6931 7.88085 21.5314 6.685C20.3697 5.48916 18.9399 4.58713 17.3604 4.05355C15.7809 3.51998 14.0971 3.37019 12.4482 3.61659C10.7993 3.863 9.23275 4.4985 7.87822 5.47052C6.52369 6.44254 5.4201 7.72314 4.65876 9.20635C3.89741 10.6896 3.5002 12.3328 3.49999 14ZM14 24.5C11.5895 24.5039 9.25182 23.6746 7.38266 22.1526C8.13493 21.0753 9.13638 20.1958 10.3017 19.5888C11.4671 18.9819 12.7619 18.6655 14.0758 18.6666C15.3734 18.6655 16.6524 18.974 17.8068 19.5665C18.9612 20.159 19.9575 21.0184 20.713 22.0733C18.8294 23.6448 16.4531 24.5038 14 24.5Z" fill="#1E1E1E"/>
</svg>
