<svg width="27" height="38" viewBox="0 0 27 38" fill="none" xmlns="http://www.w3.org/2000/svg">
<path d="M26.1745 14.4959C25.935 14.7381 25.643 14.8484 25.2982 14.8268C24.9535 14.8051 24.64 14.6806 24.3578 14.4531C22.7946 13.0993 21.0798 12.0841 19.2136 11.4075C17.3473 10.7309 15.4498 10.3926 13.521 10.3926C11.5922 10.3926 9.69102 10.7272 7.81744 11.3964C5.94385 12.0656 4.23279 13.0703 2.68423 14.4104C2.40258 14.6384 2.08233 14.7703 1.7235 14.8063C1.36467 14.8422 1.06527 14.7387 0.825294 14.4959C0.585322 14.2531 0.472941 13.9609 0.488151 13.6195C0.50336 13.278 0.636866 12.993 0.888667 12.7645C2.69127 11.1684 4.68428 9.97138 6.86769 9.17336C9.0511 8.37534 11.2689 7.97633 13.521 7.97633C15.7731 7.97633 17.9948 8.37876 20.1861 9.18362C22.3774 9.98848 24.3665 11.1963 26.1533 12.8072C26.4068 13.0352 26.5339 13.3131 26.5344 13.6409C26.535 13.9686 26.415 14.2536 26.1745 14.4959Z" fill="white"/>
<path d="M13.5 27.5C12.7896 27.5 12.1083 27.2366 11.606 26.7678C11.1036 26.2989 10.8214 25.663 10.8214 25C10.8214 24.337 11.1036 23.7011 11.606 23.2322C12.1083 22.7634 12.7896 22.5 13.5 22.5C14.2104 22.5 14.8917 22.7634 15.394 23.2322C15.8964 23.7011 16.1786 24.337 16.1786 25C16.1786 25.3283 16.1093 25.6534 15.9747 25.9567C15.8401 26.26 15.6428 26.5356 15.394 26.7678C15.1453 26.9999 14.85 27.1841 14.525 27.3097C14.2001 27.4353 13.8518 27.5 13.5 27.5ZM13.5 18C11.5109 18 9.60322 18.7375 8.1967 20.0503C6.79018 21.363 6 23.1435 6 25C6 30.25 13.5 38 13.5 38C13.5 38 21 30.25 21 25C21 23.1435 20.2098 21.363 18.8033 20.0503C17.3968 18.7375 15.4891 18 13.5 18Z" fill="white"/>
<path d="M23.0052 18.1755C22.8254 18.3575 22.606 18.4403 22.3471 18.424C22.0881 18.4078 21.8527 18.3142 21.6407 18.1434C20.4666 17.1266 19.1787 16.3641 17.777 15.8559C16.3752 15.3477 14.95 15.0935 13.5013 15.0935C12.0526 15.0935 10.6247 15.3448 9.21747 15.8474C7.81025 16.35 6.5251 17.1046 5.36201 18.1111C5.15046 18.2824 4.90993 18.3815 4.64042 18.4085C4.37091 18.4354 4.14603 18.3577 3.96579 18.1753C3.78555 17.993 3.70114 17.7735 3.71256 17.5171C3.72398 17.2606 3.82425 17.0466 4.01338 16.8749C5.36728 15.6761 6.86419 14.7771 8.50411 14.1777C10.144 13.5783 11.8098 13.2787 13.5013 13.2787C15.1929 13.2787 16.8616 13.581 18.5074 14.1855C20.1533 14.79 21.6472 15.6973 22.9893 16.9072C23.1797 17.0784 23.2751 17.2871 23.2756 17.5333C23.276 17.7795 23.1859 17.9936 23.0052 18.1755Z" fill="white" stroke="white" stroke-width="0.6"/>
</svg>
