<svg width="23" height="23" viewBox="0 0 23 23" fill="none" xmlns="http://www.w3.org/2000/svg">
<path d="M13.0425 8.95772V9.95772H14.0425H19.4388C19.8892 9.95772 20.3211 10.1366 20.6396 10.4551C20.958 10.7736 21.1369 11.2055 21.1369 11.6559C21.1369 12.1062 20.958 12.5382 20.6396 12.8566C20.3229 13.1733 19.8942 13.3519 19.4466 13.354L14.0602 13.2584L13.0425 13.2403V14.2582V19.7503C13.0425 20.2007 12.8636 20.6326 12.5451 20.9511C12.2267 21.2695 11.7947 21.4485 11.3443 21.4485C10.894 21.4485 10.462 21.2695 10.1436 20.9511C9.82693 20.6344 9.64825 20.2056 9.64622 19.758L9.74183 14.2757L9.75989 13.2403L8.72455 13.2584L3.24217 13.354C2.79459 13.352 2.36577 13.1733 2.04913 12.8566C1.73067 12.5382 1.55176 12.1062 1.55176 11.6559C1.55176 11.2055 1.73067 10.7736 2.04913 10.4551C2.3676 10.1366 2.79953 9.95772 3.2499 9.95772H8.74198H9.75989L9.74183 8.93998L9.64622 3.55357C9.64829 3.10603 9.82696 2.67727 10.1436 2.36066C10.462 2.04219 10.894 1.86328 11.3443 1.86328C11.7947 1.86328 12.2267 2.04219 12.5451 2.36066C12.8636 2.67912 13.0425 3.11105 13.0425 3.56143V8.95772Z" fill="white" stroke="white" stroke-width="2"/>
</svg>
