<svg width="129" height="26" viewBox="0 0 129 26" fill="none" xmlns="http://www.w3.org/2000/svg">
<path d="M0 21C0 9.40202 9.40202 0 21 0H51.9351H113.966C115.776 0 116.037 2.61274 114.262 2.97043L0 26V21Z" fill="#E6D6F8"/>
<path d="M19.8143 6.79908L21.1436 5.81836L28.3837 11.1633C28.5004 11.249 28.593 11.3508 28.6562 11.463C28.7194 11.5752 28.752 11.6955 28.752 11.817C28.752 11.9385 28.7194 12.0588 28.6562 12.171C28.593 12.2831 28.5004 12.385 28.3837 12.4706L21.1436 17.8184L19.8156 16.8376L26.6109 11.8184L19.8143 6.79908Z" fill="white"/>
<path d="M11.827 6.79908L13.1563 5.81836L20.3964 11.1633C20.5131 11.249 20.6057 11.3508 20.6689 11.463C20.7321 11.5752 20.7646 11.6955 20.7646 11.817C20.7646 11.9385 20.7321 12.0588 20.6689 12.171C20.6057 12.2831 20.5131 12.385 20.3964 12.4706L13.1563 17.8184L11.8283 16.8376L18.6236 11.8184L11.827 6.79908Z" fill="white"/>
</svg>
