<svg width="26" height="26" viewBox="0 0 26 26" fill="none" xmlns="http://www.w3.org/2000/svg">
<path d="M22.7043 4.37734C20.3277 1.69609 16.8695 0 13 0C5.81953 0 0 5.81953 0 13H3.25C3.25 7.61211 7.61211 3.25 13 3.25C15.9707 3.25 18.6063 4.5957 20.3887 6.69297L17.3316 9.75H26V1.08164L22.7043 4.37734ZM13 22.75C10.0293 22.75 7.39375 21.4043 5.61133 19.307L8.66836 16.25H0V24.9184L3.2957 21.6227C5.67227 24.3039 9.13555 26 13 26C20.1805 26 26 20.1805 26 13H22.75C22.75 18.3879 18.3879 22.75 13 22.75ZM15.1684 13C15.1684 11.8016 14.1984 10.8316 13 10.8316C11.8016 10.8316 10.8316 11.8016 10.8316 13C10.8316 14.1984 11.8016 15.1684 13 15.1684C14.1984 15.1684 15.1684 14.1984 15.1684 13Z" fill="black"/>
</svg>
