<svg width="396" height="94" viewBox="0 0 396 94" fill="none" xmlns="http://www.w3.org/2000/svg">
<path d="M0 21C0 9.40202 9.40202 0 21 0H375C386.598 0 396 9.40202 396 21V78H339.297C334.902 78 330.643 79.5237 327.245 82.3116L313 94C210.654 94 72.7828 94 20.9007 94C9.30277 94 0 84.598 0 73V21Z" fill="white"/>
<path d="M2 23C2 11.402 11.402 2 23 2H53.9351H115.966C117.776 2 118.037 4.61274 116.262 4.97043L2 28V23Z" fill="#E6D6F8"/>
<path d="M21.8143 8.79908L23.1436 7.81836L30.3837 13.1633C30.5004 13.249 30.593 13.3508 30.6562 13.463C30.7194 13.5752 30.752 13.6955 30.752 13.817C30.752 13.9385 30.7194 14.0588 30.6562 14.171C30.593 14.2831 30.5004 14.385 30.3837 14.4706L23.1436 19.8184L21.8156 18.8376L28.6109 13.8184L21.8143 8.79908Z" fill="white"/>
<path d="M13.827 8.79908L15.1563 7.81836L22.3964 13.1633C22.5131 13.249 22.6057 13.3508 22.6689 13.463C22.7321 13.5752 22.7646 13.6955 22.7646 13.817C22.7646 13.9385 22.7321 14.0588 22.6689 14.171C22.6057 14.2831 22.5131 14.385 22.3964 14.4706L15.1563 19.8184L13.8283 18.8376L20.6236 13.8184L13.827 8.79908Z" fill="white"/>
<path d="M25.792 89.084C25.176 89.084 24.624 88.984 24.136 88.784C23.648 88.584 23.256 88.288 22.96 87.896C22.672 87.504 22.52 87.032 22.504 86.48H24.688C24.72 86.792 24.828 87.032 25.012 87.2C25.196 87.36 25.436 87.44 25.732 87.44C26.036 87.44 26.276 87.372 26.452 87.236C26.628 87.092 26.716 86.896 26.716 86.648C26.716 86.44 26.644 86.268 26.5 86.132C26.364 85.996 26.192 85.884 25.984 85.796C25.784 85.708 25.496 85.608 25.12 85.496C24.576 85.328 24.132 85.16 23.788 84.992C23.444 84.824 23.148 84.576 22.9 84.248C22.652 83.92 22.528 83.492 22.528 82.964C22.528 82.18 22.812 81.568 23.38 81.128C23.948 80.68 24.688 80.456 25.6 80.456C26.528 80.456 27.276 80.68 27.844 81.128C28.412 81.568 28.716 82.184 28.756 82.976H26.536C26.52 82.704 26.42 82.492 26.236 82.34C26.052 82.18 25.816 82.1 25.528 82.1C25.28 82.1 25.08 82.168 24.928 82.304C24.776 82.432 24.7 82.62 24.7 82.868C24.7 83.14 24.828 83.352 25.084 83.504C25.34 83.656 25.74 83.82 26.284 83.996C26.828 84.18 27.268 84.356 27.604 84.524C27.948 84.692 28.244 84.936 28.492 85.256C28.74 85.576 28.864 85.988 28.864 86.492C28.864 86.972 28.74 87.408 28.492 87.8C28.252 88.192 27.9 88.504 27.436 88.736C26.972 88.968 26.424 89.084 25.792 89.084ZM39.3788 82.304L37.5668 89H35.2988L34.2428 84.656L33.1508 89H30.8948L29.0708 82.304H31.1228L32.0708 87.092L33.1988 82.304H35.3708L36.5108 87.068L37.4468 82.304H39.3788ZM40.8333 81.608C40.4733 81.608 40.1773 81.504 39.9453 81.296C39.7213 81.08 39.6093 80.816 39.6093 80.504C39.6093 80.184 39.7213 79.92 39.9453 79.712C40.1773 79.496 40.4733 79.388 40.8333 79.388C41.1853 79.388 41.4733 79.496 41.6973 79.712C41.9293 79.92 42.0453 80.184 42.0453 80.504C42.0453 80.816 41.9293 81.08 41.6973 81.296C41.4733 81.504 41.1853 81.608 40.8333 81.608ZM41.8533 82.304V89H39.8013V82.304H41.8533ZM45.0324 83.252C45.2324 82.94 45.5084 82.688 45.8604 82.496C46.2124 82.304 46.6244 82.208 47.0964 82.208C47.6484 82.208 48.1484 82.348 48.5964 82.628C49.0444 82.908 49.3964 83.308 49.6524 83.828C49.9164 84.348 50.0484 84.952 50.0484 85.64C50.0484 86.328 49.9164 86.936 49.6524 87.464C49.3964 87.984 49.0444 88.388 48.5964 88.676C48.1484 88.956 47.6484 89.096 47.0964 89.096C46.6324 89.096 46.2204 89 45.8604 88.808C45.5084 88.616 45.2324 88.368 45.0324 88.064V92.192H42.9804V82.304H45.0324V83.252ZM47.9604 85.64C47.9604 85.128 47.8164 84.728 47.5284 84.44C47.2484 84.144 46.9004 83.996 46.4844 83.996C46.0764 83.996 45.7284 84.144 45.4404 84.44C45.1604 84.736 45.0204 85.14 45.0204 85.652C45.0204 86.164 45.1604 86.568 45.4404 86.864C45.7284 87.16 46.0764 87.308 46.4844 87.308C46.8924 87.308 47.2404 87.16 47.5284 86.864C47.8164 86.56 47.9604 86.152 47.9604 85.64ZM57.0769 85.544C57.0769 85.736 57.0649 85.936 57.0409 86.144H52.3969C52.4289 86.56 52.5609 86.88 52.7929 87.104C53.0329 87.32 53.3249 87.428 53.6689 87.428C54.1809 87.428 54.5369 87.212 54.7369 86.78H56.9209C56.8089 87.22 56.6049 87.616 56.3089 87.968C56.0209 88.32 55.6569 88.596 55.2169 88.796C54.7769 88.996 54.2849 89.096 53.7409 89.096C53.0849 89.096 52.5009 88.956 51.9889 88.676C51.4769 88.396 51.0769 87.996 50.7889 87.476C50.5009 86.956 50.3569 86.348 50.3569 85.652C50.3569 84.956 50.4969 84.348 50.7769 83.828C51.0649 83.308 51.4649 82.908 51.9769 82.628C52.4889 82.348 53.0769 82.208 53.7409 82.208C54.3889 82.208 54.9649 82.344 55.4689 82.616C55.9729 82.888 56.3649 83.276 56.6449 83.78C56.9329 84.284 57.0769 84.872 57.0769 85.544ZM54.9769 85.004C54.9769 84.652 54.8569 84.372 54.6169 84.164C54.3769 83.956 54.0769 83.852 53.7169 83.852C53.3729 83.852 53.0809 83.952 52.8409 84.152C52.6089 84.352 52.4649 84.636 52.4089 85.004H54.9769ZM66.0424 80.576V82.22H63.8104V89H61.7584V82.22H59.5264V80.576H66.0424ZM69.7603 89.096C69.1043 89.096 68.5123 88.956 67.9843 88.676C67.4643 88.396 67.0523 87.996 66.7483 87.476C66.4523 86.956 66.3043 86.348 66.3043 85.652C66.3043 84.964 66.4563 84.36 66.7603 83.84C67.0643 83.312 67.4803 82.908 68.0083 82.628C68.5363 82.348 69.1283 82.208 69.7843 82.208C70.4403 82.208 71.0323 82.348 71.5603 82.628C72.0883 82.908 72.5043 83.312 72.8083 83.84C73.1123 84.36 73.2643 84.964 73.2643 85.652C73.2643 86.34 73.1083 86.948 72.7963 87.476C72.4923 87.996 72.0723 88.396 71.5363 88.676C71.0083 88.956 70.4163 89.096 69.7603 89.096ZM69.7603 87.32C70.1523 87.32 70.4843 87.176 70.7563 86.888C71.0363 86.6 71.1763 86.188 71.1763 85.652C71.1763 85.116 71.0403 84.704 70.7683 84.416C70.5043 84.128 70.1763 83.984 69.7843 83.984C69.3843 83.984 69.0523 84.128 68.7883 84.416C68.5243 84.696 68.3923 85.108 68.3923 85.652C68.3923 86.188 68.5203 86.6 68.7763 86.888C69.0403 87.176 69.3683 87.32 69.7603 87.32ZM79.2239 89.084C78.6079 89.084 78.0559 88.984 77.5679 88.784C77.0799 88.584 76.6879 88.288 76.3919 87.896C76.1039 87.504 75.9519 87.032 75.9359 86.48H78.1199C78.1519 86.792 78.2599 87.032 78.4439 87.2C78.6279 87.36 78.8679 87.44 79.1639 87.44C79.4679 87.44 79.7079 87.372 79.8839 87.236C80.0599 87.092 80.1479 86.896 80.1479 86.648C80.1479 86.44 80.0759 86.268 79.9319 86.132C79.7959 85.996 79.6239 85.884 79.4159 85.796C79.2159 85.708 78.9279 85.608 78.5519 85.496C78.0079 85.328 77.5639 85.16 77.2199 84.992C76.8759 84.824 76.5799 84.576 76.3319 84.248C76.0839 83.92 75.9599 83.492 75.9599 82.964C75.9599 82.18 76.2439 81.568 76.8119 81.128C77.3799 80.68 78.1199 80.456 79.0319 80.456C79.9599 80.456 80.7079 80.68 81.2759 81.128C81.8439 81.568 82.1479 82.184 82.1879 82.976H79.9679C79.9519 82.704 79.8519 82.492 79.6679 82.34C79.4839 82.18 79.2479 82.1 78.9599 82.1C78.7119 82.1 78.5119 82.168 78.3599 82.304C78.2079 82.432 78.1319 82.62 78.1319 82.868C78.1319 83.14 78.2599 83.352 78.5159 83.504C78.7719 83.656 79.1719 83.82 79.7159 83.996C80.2599 84.18 80.6999 84.356 81.0359 84.524C81.3799 84.692 81.6759 84.936 81.9239 85.256C82.1719 85.576 82.2959 85.988 82.2959 86.492C82.2959 86.972 82.1719 87.408 81.9239 87.8C81.6839 88.192 81.3319 88.504 80.8679 88.736C80.4039 88.968 79.8559 89.084 79.2239 89.084ZM86.9307 87.26V89H85.8867C85.1427 89 84.5627 88.82 84.1467 88.46C83.7307 88.092 83.5227 87.496 83.5227 86.672V84.008H82.7067V82.304H83.5227V80.672H85.5747V82.304H86.9187V84.008H85.5747V86.696C85.5747 86.896 85.6227 87.04 85.7187 87.128C85.8147 87.216 85.9747 87.26 86.1987 87.26H86.9307ZM87.3057 85.64C87.3057 84.952 87.4337 84.348 87.6897 83.828C87.9537 83.308 88.3097 82.908 88.7577 82.628C89.2057 82.348 89.7057 82.208 90.2577 82.208C90.7297 82.208 91.1417 82.304 91.4937 82.496C91.8537 82.688 92.1297 82.94 92.3217 83.252V82.304H94.3737V89H92.3217V88.052C92.1217 88.364 91.8417 88.616 91.4817 88.808C91.1297 89 90.7177 89.096 90.2457 89.096C89.7017 89.096 89.2057 88.956 88.7577 88.676C88.3097 88.388 87.9537 87.984 87.6897 87.464C87.4337 86.936 87.3057 86.328 87.3057 85.64ZM92.3217 85.652C92.3217 85.14 92.1777 84.736 91.8897 84.44C91.6097 84.144 91.2657 83.996 90.8577 83.996C90.4497 83.996 90.1017 84.144 89.8137 84.44C89.5337 84.728 89.3937 85.128 89.3937 85.64C89.3937 86.152 89.5337 86.56 89.8137 86.864C90.1017 87.16 90.4497 87.308 90.8577 87.308C91.2657 87.308 91.6097 87.16 91.8897 86.864C92.1777 86.568 92.3217 86.164 92.3217 85.652ZM97.5502 83.42C97.7902 83.052 98.0902 82.764 98.4502 82.556C98.8102 82.34 99.2102 82.232 99.6502 82.232V84.404H99.0862C98.5742 84.404 98.1902 84.516 97.9342 84.74C97.6782 84.956 97.5502 85.34 97.5502 85.892V89H95.4982V82.304H97.5502V83.42ZM104.003 87.26V89H102.959C102.215 89 101.635 88.82 101.219 88.46C100.803 88.092 100.595 87.496 100.595 86.672V84.008H99.779V82.304H100.595V80.672H102.647V82.304H103.991V84.008H102.647V86.696C102.647 86.896 102.695 87.04 102.791 87.128C102.887 87.216 103.047 87.26 103.271 87.26H104.003Z" fill="#A6A6A6"/>
</svg>
