<svg width="166" height="162" viewBox="0 0 166 162" fill="none" xmlns="http://www.w3.org/2000/svg">
<g filter="url(#filter0_d_393_4654)">
<rect x="145" y="141" width="126" height="126" rx="63" transform="rotate(-180 145 141)" fill="url(#paint0_linear_393_4654)"/>
<rect x="144.5" y="140.5" width="125" height="125" rx="62.5" transform="rotate(-180 144.5 140.5)" stroke="#D44040"/>
</g>
<rect x="145.5" y="141.5" width="127" height="127" rx="63.5" transform="rotate(-180 145.5 141.5)" stroke="#D44040"/>
<rect x="142" y="138" width="120" height="120" rx="60" transform="rotate(-180 142 138)" fill="#A30000"/>
<g filter="url(#filter1_f_393_4654)">
<rect x="142" y="138" width="119" height="119" rx="59.5" transform="rotate(-180 142 138)" fill="url(#paint1_linear_393_4654)"/>
</g>
<g filter="url(#filter2_dd_393_4654)">
<path d="M68.3975 73.48C68.2642 73.6933 68.1242 73.8467 67.9775 73.94C67.8308 74.02 67.6442 74.06 67.4175 74.06C67.1775 74.06 66.9175 73.9933 66.6375 73.86C66.3708 73.7267 66.0575 73.58 65.6975 73.42C65.3375 73.2467 64.9242 73.0933 64.4575 72.96C64.0042 72.8267 63.4642 72.76 62.8375 72.76C61.8642 72.76 61.0975 72.9667 60.5375 73.38C59.9908 73.7933 59.7175 74.3333 59.7175 75C59.7175 75.44 59.8575 75.8133 60.1375 76.12C60.4308 76.4133 60.8108 76.6733 61.2775 76.9C61.7575 77.1267 62.2975 77.3333 62.8975 77.52C63.4975 77.6933 64.1042 77.8867 64.7175 78.1C65.3442 78.3133 65.9575 78.56 66.5575 78.84C67.1575 79.1067 67.6908 79.4533 68.1575 79.88C68.6375 80.2933 69.0175 80.7933 69.2975 81.38C69.5908 81.9667 69.7375 82.6733 69.7375 83.5C69.7375 84.4867 69.5575 85.4 69.1975 86.24C68.8508 87.0667 68.3308 87.7867 67.6375 88.4C66.9442 89 66.0842 89.4733 65.0575 89.82C64.0442 90.1533 62.8708 90.32 61.5375 90.32C60.8308 90.32 60.1375 90.2533 59.4575 90.12C58.7908 90 58.1442 89.8267 57.5175 89.6C56.9042 89.3733 56.3308 89.1067 55.7975 88.8C55.2775 88.4933 54.8175 88.16 54.4175 87.8L55.5575 85.92C55.7042 85.6933 55.8775 85.52 56.0775 85.4C56.2775 85.28 56.5308 85.22 56.8375 85.22C57.1442 85.22 57.4308 85.3067 57.6975 85.48C57.9775 85.6533 58.2975 85.84 58.6575 86.04C59.0175 86.24 59.4375 86.4267 59.9175 86.6C60.4108 86.7733 61.0308 86.86 61.7775 86.86C62.3642 86.86 62.8642 86.7933 63.2775 86.66C63.7042 86.5133 64.0508 86.3267 64.3175 86.1C64.5975 85.8733 64.7975 85.6133 64.9175 85.32C65.0508 85.0133 65.1175 84.7 65.1175 84.38C65.1175 83.9 64.9708 83.5067 64.6775 83.2C64.3975 82.8933 64.0175 82.6267 63.5375 82.4C63.0708 82.1733 62.5308 81.9733 61.9175 81.8C61.3175 81.6133 60.6975 81.4133 60.0575 81.2C59.4308 80.9867 58.8108 80.74 58.1975 80.46C57.5975 80.1667 57.0575 79.8 56.5775 79.36C56.1108 78.92 55.7308 78.38 55.4375 77.74C55.1575 77.1 55.0175 76.3267 55.0175 75.42C55.0175 74.58 55.1842 73.78 55.5175 73.02C55.8508 72.26 56.3375 71.6 56.9775 71.04C57.6308 70.4667 58.4375 70.0133 59.3975 69.68C60.3708 69.3333 61.4908 69.16 62.7575 69.16C64.1708 69.16 65.4575 69.3933 66.6175 69.86C67.7775 70.3267 68.7442 70.94 69.5175 71.7L68.3975 73.48ZM82.5356 69.16C84.0556 69.16 85.4356 69.4067 86.6756 69.9C87.929 70.3933 88.9956 71.0933 89.8756 72C90.769 72.9067 91.4556 74.0133 91.9356 75.32C92.4156 76.6267 92.6556 78.0867 92.6556 79.7C92.6556 81.3267 92.4156 82.7933 91.9356 84.1C91.4556 85.4067 90.769 86.52 89.8756 87.44C88.9956 88.36 87.929 89.0667 86.6756 89.56C85.4356 90.0533 84.0556 90.3 82.5356 90.3C81.0023 90.3 79.609 90.0533 78.3556 89.56C77.1023 89.0667 76.029 88.36 75.1356 87.44C74.2556 86.52 73.569 85.4067 73.0756 84.1C72.5956 82.7933 72.3556 81.3267 72.3556 79.7C72.3556 78.0867 72.5956 76.6267 73.0756 75.32C73.569 74.0133 74.2556 72.9067 75.1356 72C76.029 71.0933 77.1023 70.3933 78.3556 69.9C79.609 69.4067 81.0023 69.16 82.5356 69.16ZM82.5356 86.5C84.2423 86.5 85.5023 85.9267 86.3156 84.78C87.1423 83.6333 87.5556 81.9533 87.5556 79.74C87.5556 77.5267 87.1423 75.84 86.3156 74.68C85.5023 73.52 84.2423 72.94 82.5356 72.94C80.8023 72.94 79.5156 73.5267 78.6756 74.7C77.849 75.86 77.4356 77.54 77.4356 79.74C77.4356 81.94 77.849 83.62 78.6756 84.78C79.5156 85.9267 80.8023 86.5 82.5356 86.5ZM108.944 73.48C108.811 73.6933 108.671 73.8467 108.524 73.94C108.378 74.02 108.191 74.06 107.964 74.06C107.724 74.06 107.464 73.9933 107.184 73.86C106.918 73.7267 106.604 73.58 106.244 73.42C105.884 73.2467 105.471 73.0933 105.004 72.96C104.551 72.8267 104.011 72.76 103.384 72.76C102.411 72.76 101.644 72.9667 101.084 73.38C100.538 73.7933 100.264 74.3333 100.264 75C100.264 75.44 100.404 75.8133 100.684 76.12C100.978 76.4133 101.358 76.6733 101.824 76.9C102.304 77.1267 102.844 77.3333 103.444 77.52C104.044 77.6933 104.651 77.8867 105.264 78.1C105.891 78.3133 106.504 78.56 107.104 78.84C107.704 79.1067 108.238 79.4533 108.704 79.88C109.184 80.2933 109.564 80.7933 109.844 81.38C110.138 81.9667 110.284 82.6733 110.284 83.5C110.284 84.4867 110.104 85.4 109.744 86.24C109.398 87.0667 108.878 87.7867 108.184 88.4C107.491 89 106.631 89.4733 105.604 89.82C104.591 90.1533 103.418 90.32 102.084 90.32C101.378 90.32 100.684 90.2533 100.004 90.12C99.3377 90 98.691 89.8267 98.0644 89.6C97.451 89.3733 96.8777 89.1067 96.3444 88.8C95.8244 88.4933 95.3644 88.16 94.9644 87.8L96.1044 85.92C96.251 85.6933 96.4244 85.52 96.6244 85.4C96.8244 85.28 97.0777 85.22 97.3844 85.22C97.691 85.22 97.9777 85.3067 98.2444 85.48C98.5244 85.6533 98.8444 85.84 99.2044 86.04C99.5644 86.24 99.9844 86.4267 100.464 86.6C100.958 86.7733 101.578 86.86 102.324 86.86C102.911 86.86 103.411 86.7933 103.824 86.66C104.251 86.5133 104.598 86.3267 104.864 86.1C105.144 85.8733 105.344 85.6133 105.464 85.32C105.598 85.0133 105.664 84.7 105.664 84.38C105.664 83.9 105.518 83.5067 105.224 83.2C104.944 82.8933 104.564 82.6267 104.084 82.4C103.618 82.1733 103.078 81.9733 102.464 81.8C101.864 81.6133 101.244 81.4133 100.604 81.2C99.9777 80.9867 99.3577 80.74 98.7444 80.46C98.1444 80.1667 97.6044 79.8 97.1244 79.36C96.6577 78.92 96.2777 78.38 95.9844 77.74C95.7044 77.1 95.5644 76.3267 95.5644 75.42C95.5644 74.58 95.731 73.78 96.0644 73.02C96.3977 72.26 96.8844 71.6 97.5244 71.04C98.1777 70.4667 98.9844 70.0133 99.9444 69.68C100.918 69.3333 102.038 69.16 103.304 69.16C104.718 69.16 106.004 69.3933 107.164 69.86C108.324 70.3267 109.291 70.94 110.064 71.7L108.944 73.48Z" fill="white"/>
</g>
<defs>
<filter id="filter0_d_393_4654" x="0.799999" y="0.799999" width="168.4" height="168.4" filterUnits="userSpaceOnUse" color-interpolation-filters="sRGB">
<feFlood flood-opacity="0" result="BackgroundImageFix"/>
<feColorMatrix in="SourceAlpha" type="matrix" values="0 0 0 0 0 0 0 0 0 0 0 0 0 0 0 0 0 0 127 0" result="hardAlpha"/>
<feOffset dx="3" dy="7"/>
<feGaussianBlur stdDeviation="10.6"/>
<feColorMatrix type="matrix" values="0 0 0 0 0 0 0 0 0 0 0 0 0 0 0 0 0 0 0.22 0"/>
<feBlend mode="normal" in2="BackgroundImageFix" result="effect1_dropShadow_393_4654"/>
<feBlend mode="normal" in="SourceGraphic" in2="effect1_dropShadow_393_4654" result="shape"/>
</filter>
<filter id="filter1_f_393_4654" x="22" y="18" width="121" height="121" filterUnits="userSpaceOnUse" color-interpolation-filters="sRGB">
<feFlood flood-opacity="0" result="BackgroundImageFix"/>
<feBlend mode="normal" in="SourceGraphic" in2="BackgroundImageFix" result="shape"/>
<feGaussianBlur stdDeviation="0.5" result="effect1_foregroundBlur_393_4654"/>
</filter>
<filter id="filter2_dd_393_4654" x="29.418" y="44.16" width="105.866" height="71.16" filterUnits="userSpaceOnUse" color-interpolation-filters="sRGB">
<feFlood flood-opacity="0" result="BackgroundImageFix"/>
<feColorMatrix in="SourceAlpha" type="matrix" values="0 0 0 0 0 0 0 0 0 0 0 0 0 0 0 0 0 0 127 0" result="hardAlpha"/>
<feOffset/>
<feGaussianBlur stdDeviation="5"/>
<feComposite in2="hardAlpha" operator="out"/>
<feColorMatrix type="matrix" values="0 0 0 0 1 0 0 0 0 1 0 0 0 0 1 0 0 0 0.16 0"/>
<feBlend mode="normal" in2="BackgroundImageFix" result="effect1_dropShadow_393_4654"/>
<feColorMatrix in="SourceAlpha" type="matrix" values="0 0 0 0 0 0 0 0 0 0 0 0 0 0 0 0 0 0 127 0" result="hardAlpha"/>
<feOffset/>
<feGaussianBlur stdDeviation="12.5"/>
<feComposite in2="hardAlpha" operator="out"/>
<feColorMatrix type="matrix" values="0 0 0 0 1 0 0 0 0 1 0 0 0 0 1 0 0 0 0.16 0"/>
<feBlend mode="normal" in2="effect1_dropShadow_393_4654" result="effect2_dropShadow_393_4654"/>
<feBlend mode="normal" in="SourceGraphic" in2="effect2_dropShadow_393_4654" result="shape"/>
</filter>
<linearGradient id="paint0_linear_393_4654" x1="249.523" y1="252.682" x2="165.045" y2="158.182" gradientUnits="userSpaceOnUse">
<stop stop-color="#F28787"/>
<stop offset="1" stop-color="#FF9D9D"/>
</linearGradient>
<linearGradient id="paint1_linear_393_4654" x1="240.175" y1="242.125" x2="116.713" y2="138" gradientUnits="userSpaceOnUse">
<stop stop-color="#FF2828"/>
<stop offset="1" stop-color="#C40C0C"/>
</linearGradient>
</defs>
</svg>
