<svg width="25" height="20" viewBox="0 0 25 20" fill="none" xmlns="http://www.w3.org/2000/svg">
<path d="M15.934 6.96502C15.6663 4.9539 14.6446 3.11956 13.0757 1.83313C11.5069 0.546704 9.50789 -0.095748 7.48329 0.0357606C5.4587 0.167269 3.55964 1.06292 2.17036 2.54149C0.781074 4.02007 0.0053017 5.97117 0 8.00002C0 9.89202 0.657 11.631 1.756 13.001C2.564 14.01 3 15.125 3 16.306V20H12L12.001 17H14C14.5304 17 15.0391 16.7893 15.4142 16.4142C15.7893 16.0392 16 15.5305 16 15V12.071L17.96 11.231C18.302 11.085 18.332 10.737 18.184 10.504L15.934 6.96502ZM2 8.00002C1.99846 6.47524 2.57751 5.00708 3.61947 3.89386C4.66144 2.78064 6.08815 2.10588 7.6097 2.00669C9.13124 1.9075 10.6335 2.39133 11.8112 3.35986C12.9888 4.32838 13.7536 5.70895 13.95 7.22102L14.007 7.66302L15.55 10.088L14 10.752V15H10.002L10 18H5V16.306C5 14.667 4.409 13.114 3.315 11.75C2.4613 10.6869 1.99724 9.36351 2 8.00002ZM20.154 16.102L18.489 14.992C19.4766 13.5147 20.0025 11.777 20 10C20.003 8.22276 19.4774 6.48476 18.49 5.00702L20.154 3.89702C21.3611 5.7032 22.0037 7.82761 22 10C22 12.258 21.32 14.356 20.154 16.102Z" fill="#1E1E1E"/>
<path d="M23 5.5V5.5C24.2733 8.36489 24.2733 11.6351 23 14.5V14.5" stroke="#1E1E1E" stroke-width="1.8"/>
</svg>
