<svg width="27" height="24" viewBox="0 0 27 24" fill="none" xmlns="http://www.w3.org/2000/svg">
<path d="M12.9948 2.06344L14.9718 0.120104L25.7403 10.7113C25.9139 10.881 26.0517 11.0828 26.1457 11.3051C26.2397 11.5274 26.2881 11.7658 26.2881 12.0065C26.2881 12.2473 26.2397 12.4857 26.1457 12.708C26.0517 12.9303 25.9139 13.1321 25.7403 13.3018L14.9718 23.8984L12.9966 21.9551L23.1036 12.0093L12.9948 2.06344Z" fill="white"/>
<path d="M0.798481 2.06344L2.77554 0.120104L13.5441 10.7113C13.7176 10.881 13.8554 11.0828 13.9494 11.3051C14.0434 11.5274 14.0918 11.7658 14.0918 12.0065C14.0918 12.2473 14.0434 12.4857 13.9494 12.708C13.8554 12.9303 13.7176 13.1321 13.5441 13.3018L2.77554 23.8984L0.800344 21.9551L10.9074 12.0093L0.798481 2.06344Z" fill="white"/>
</svg>
