<svg width="86" height="63" viewBox="0 0 86 63" fill="none" xmlns="http://www.w3.org/2000/svg">
<path d="M72.4777 4.15498L72.5455 4.09698L72.589 4.0191C73.0281 3.23405 73.6187 2.54235 74.3273 1.98365C75.0359 1.42494 75.8486 1.0102 76.719 0.763267C77.5894 0.516337 78.5003 0.442101 79.3997 0.544833C80.299 0.647562 81.169 0.925216 81.96 1.36182C82.7508 1.79852 83.4471 2.38552 84.0091 3.08914C84.5711 3.79276 84.9879 4.59924 85.2359 5.46249L85.7165 5.32444L85.2359 5.46249C85.4839 6.32573 85.5582 7.22895 85.4547 8.12064C85.3541 8.98738 85.0873 9.82687 84.6689 10.5939L33.4289 58.8605L33.373 58.9132L33.3354 58.9802C32.8177 59.9051 32.0908 60.6984 31.2115 61.2974C30.3367 61.8933 29.335 62.2806 28.2845 62.4291L27.2962 62.5C25.5007 62.4954 23.7612 61.7925 22.4662 60.5154L2.65316 34.5683L2.62974 34.5377L2.60189 34.5109C1.94407 33.88 1.41956 33.1254 1.0588 32.2913L0.59989 32.4898L1.0588 32.2913C0.698042 31.4572 0.5082 30.5603 0.50026 29.6528C0.492319 28.7453 0.666438 27.8453 1.01254 27.0051C1.35865 26.165 1.86986 25.4015 2.51652 24.7592C3.16319 24.117 3.93236 23.6089 4.77925 23.2648C5.62615 22.9207 6.53369 22.7475 7.44889 22.7554C8.36408 22.7633 9.26845 22.9521 10.1092 23.3108C10.9365 23.6638 11.6858 24.1742 12.3149 24.8129L25.1963 43.8702L25.51 44.3343L25.9356 43.9702L72.4777 4.15498Z" fill="url(#paint0_linear_1009_1730)" stroke="#E1E1E1"/>
<defs>
<linearGradient id="paint0_linear_1009_1730" x1="14" y1="4.5" x2="138" y2="96" gradientUnits="userSpaceOnUse">
<stop stop-color="#31EDB7"/>
<stop offset="1" stop-color="#1C8768"/>
</linearGradient>
</defs>
</svg>
